<svg width="1728" height="290" viewBox="0 0 1728 290" fill="none" xmlns="http://www.w3.org/2000/svg">
<rect width="1728" height="290" fill="url(#paint0_linear_88_284)"/>
<path d="M1466.98 36.6727V55H1463.23L1455.93 44.4224H1455.82V55H1451.39V36.6727H1455.2L1462.41 47.2324H1462.56V36.6727H1466.98ZM1473.65 55.2327C1472.77 55.2327 1471.99 55.0865 1471.31 54.7942C1470.64 54.4959 1470.1 54.0484 1469.71 53.4518C1469.32 52.8493 1469.13 52.0946 1469.13 51.1878C1469.13 50.4241 1469.26 49.7798 1469.53 49.2548C1469.8 48.7298 1470.17 48.3033 1470.64 47.9751C1471.11 47.647 1471.65 47.3994 1472.27 47.2324C1472.88 47.0594 1473.54 46.943 1474.24 46.8834C1475.02 46.8118 1475.65 46.7372 1476.12 46.6597C1476.6 46.5761 1476.95 46.4598 1477.16 46.3107C1477.38 46.1555 1477.49 45.9378 1477.49 45.6574V45.6126C1477.49 45.1533 1477.34 44.7983 1477.02 44.5477C1476.7 44.2972 1476.28 44.1719 1475.74 44.1719C1475.16 44.1719 1474.7 44.2972 1474.34 44.5477C1473.99 44.7983 1473.77 45.1443 1473.67 45.5858L1469.64 45.4426C1469.76 44.6074 1470.06 43.8616 1470.56 43.2054C1471.06 42.5432 1471.74 42.0241 1472.62 41.6483C1473.49 41.2665 1474.55 41.0756 1475.77 41.0756C1476.65 41.0756 1477.46 41.18 1478.2 41.3888C1478.94 41.5916 1479.58 41.8899 1480.13 42.2837C1480.68 42.6714 1481.11 43.1487 1481.4 43.7155C1481.71 44.2822 1481.86 44.9295 1481.86 45.6574V55H1477.74V53.0849H1477.64C1477.39 53.5503 1477.08 53.944 1476.7 54.2662C1476.32 54.5884 1475.88 54.83 1475.36 54.9911C1474.86 55.1521 1474.28 55.2327 1473.65 55.2327ZM1475 52.369C1475.47 52.369 1475.89 52.2736 1476.27 52.0827C1476.65 51.8918 1476.95 51.6293 1477.18 51.2952C1477.41 50.9551 1477.52 50.5614 1477.52 50.1139V48.8074C1477.39 48.873 1477.24 48.9327 1477.06 48.9864C1476.89 49.0401 1476.7 49.0908 1476.49 49.1385C1476.28 49.1862 1476.07 49.228 1475.85 49.2638C1475.63 49.2996 1475.41 49.3324 1475.21 49.3622C1474.8 49.4278 1474.45 49.5293 1474.16 49.6665C1473.87 49.8037 1473.65 49.9827 1473.49 50.2034C1473.34 50.4182 1473.27 50.6747 1473.27 50.973C1473.27 51.4264 1473.43 51.7724 1473.75 52.0111C1474.08 52.2497 1474.5 52.369 1475 52.369ZM1484.54 55V41.2545H1488.7V43.7781H1488.85C1489.14 42.9429 1489.62 42.2837 1490.3 41.8004C1490.98 41.3172 1491.79 41.0756 1492.73 41.0756C1493.69 41.0756 1494.5 41.3202 1495.19 41.8094C1495.87 42.2986 1496.3 42.9548 1496.48 43.7781H1496.63C1496.88 42.9608 1497.38 42.3075 1498.13 41.8183C1498.87 41.3232 1499.75 41.0756 1500.77 41.0756C1502.07 41.0756 1503.13 41.4932 1503.94 42.3284C1504.75 43.1577 1505.15 44.2972 1505.15 45.7469V55H1500.78V46.7491C1500.78 46.0631 1500.6 45.5411 1500.25 45.1831C1499.9 44.8192 1499.44 44.6372 1498.88 44.6372C1498.28 44.6372 1497.8 44.8341 1497.46 45.2278C1497.12 45.6156 1496.95 46.1376 1496.95 46.7939V55H1492.74V46.7044C1492.74 46.0661 1492.57 45.5619 1492.22 45.192C1491.88 44.8222 1491.42 44.6372 1490.85 44.6372C1490.47 44.6372 1490.13 44.7297 1489.84 44.9146C1489.55 45.0936 1489.32 45.3501 1489.15 45.6842C1488.99 46.0183 1488.91 46.4121 1488.91 46.8655V55H1484.54ZM1514.29 55.2595C1512.85 55.2595 1511.61 54.9761 1510.57 54.4094C1509.53 53.8366 1508.73 53.0223 1508.17 51.9663C1507.62 50.9044 1507.34 49.6426 1507.34 48.181C1507.34 46.7611 1507.62 45.5202 1508.18 44.4582C1508.74 43.3903 1509.53 42.5611 1510.55 41.9705C1511.57 41.3739 1512.77 41.0756 1514.16 41.0756C1515.14 41.0756 1516.03 41.2277 1516.84 41.532C1517.65 41.8362 1518.35 42.2866 1518.94 42.8832C1519.53 43.4798 1519.99 44.2166 1520.32 45.0936C1520.65 45.9646 1520.81 46.9639 1520.81 48.0915V49.1832H1508.87V46.6418H1516.74C1516.74 46.1764 1516.63 45.7618 1516.41 45.3979C1516.2 45.0339 1515.9 44.7506 1515.53 44.5477C1515.16 44.3389 1514.73 44.2345 1514.25 44.2345C1513.76 44.2345 1513.32 44.3449 1512.93 44.5656C1512.54 44.7804 1512.24 45.0757 1512.01 45.4516C1511.78 45.8214 1511.66 46.242 1511.65 46.7134V49.2996C1511.65 49.8604 1511.76 50.3526 1511.98 50.7761C1512.2 51.1937 1512.52 51.5189 1512.92 51.7516C1513.33 51.9842 1513.81 52.1006 1514.37 52.1006C1514.76 52.1006 1515.11 52.0469 1515.43 51.9395C1515.74 51.8321 1516.02 51.674 1516.24 51.4652C1516.47 51.2564 1516.64 50.9999 1516.75 50.6956L1520.77 50.8119C1520.6 51.7128 1520.24 52.4973 1519.67 53.1655C1519.11 53.8277 1518.37 54.3437 1517.46 54.7136C1516.55 55.0776 1515.49 55.2595 1514.29 55.2595ZM1535.05 45.4516L1531.03 45.5589C1530.99 45.2726 1530.88 45.019 1530.69 44.7983C1530.51 44.5716 1530.27 44.3956 1529.97 44.2703C1529.67 44.1391 1529.33 44.0734 1528.95 44.0734C1528.44 44.0734 1528.01 44.1749 1527.65 44.3777C1527.3 44.5805 1527.12 44.855 1527.13 45.201C1527.12 45.4695 1527.23 45.7021 1527.45 45.899C1527.68 46.0959 1528.08 46.254 1528.66 46.3733L1531.31 46.8744C1532.68 47.1369 1533.7 47.5724 1534.37 48.181C1535.04 48.7895 1535.38 49.5949 1535.39 50.5972C1535.38 51.5398 1535.1 52.3601 1534.55 53.0581C1534 53.7561 1533.25 54.299 1532.29 54.6868C1531.34 55.0686 1530.25 55.2595 1529.02 55.2595C1527.06 55.2595 1525.51 54.8568 1524.37 54.0514C1523.25 53.2401 1522.6 52.1543 1522.44 50.794L1526.76 50.6866C1526.86 51.1878 1527.11 51.5696 1527.51 51.8321C1527.91 52.0946 1528.42 52.2259 1529.04 52.2259C1529.6 52.2259 1530.05 52.1214 1530.41 51.9126C1530.76 51.7038 1530.94 51.4264 1530.94 51.0804C1530.94 50.7702 1530.8 50.5226 1530.53 50.3376C1530.26 50.1467 1529.84 49.9976 1529.27 49.8902L1526.87 49.4338C1525.49 49.1832 1524.47 48.7209 1523.79 48.0467C1523.12 47.3666 1522.78 46.5016 1522.79 45.4516C1522.78 44.5328 1523.03 43.7483 1523.52 43.098C1524.02 42.4418 1524.72 41.9406 1525.64 41.5946C1526.55 41.2486 1527.63 41.0756 1528.87 41.0756C1530.73 41.0756 1532.2 41.4663 1533.27 42.2479C1534.34 43.0234 1534.94 44.0913 1535.05 45.4516Z" fill="black"/>
<path d="M1452.43 86.1727H1454.37L1461.02 102.137H1461.18L1467.83 86.1727H1469.76V104.5H1468.18V89.7075H1468.04L1461.86 104.5H1460.34L1454.15 89.7075H1454.01V104.5H1452.43V86.1727ZM1478.14 104.813C1477.31 104.813 1476.55 104.652 1475.87 104.33C1475.18 104.002 1474.63 103.531 1474.23 102.916C1473.82 102.296 1473.62 101.544 1473.62 100.661C1473.62 99.9808 1473.75 99.4081 1474.01 98.9428C1474.26 98.4774 1474.63 98.0956 1475.1 97.7973C1475.57 97.499 1476.13 97.2634 1476.77 97.0903C1477.41 96.9173 1478.12 96.7831 1478.9 96.6876C1479.67 96.5922 1480.32 96.5087 1480.85 96.4371C1481.39 96.3655 1481.8 96.2521 1482.08 96.097C1482.36 95.9419 1482.5 95.6913 1482.5 95.3453V95.0232C1482.5 94.0865 1482.22 93.3497 1481.66 92.8128C1481.1 92.2699 1480.3 91.9984 1479.26 91.9984C1478.27 91.9984 1477.46 92.2162 1476.83 92.6517C1476.21 93.0872 1475.78 93.6003 1475.53 94.1909L1474.01 93.645C1474.32 92.8933 1474.75 92.2937 1475.3 91.8463C1475.85 91.3929 1476.47 91.0678 1477.15 90.8709C1477.83 90.668 1478.52 90.5666 1479.21 90.5666C1479.74 90.5666 1480.28 90.6352 1480.85 90.7724C1481.42 90.9097 1481.95 91.1483 1482.44 91.4884C1482.93 91.8224 1483.33 92.2908 1483.63 92.8933C1483.94 93.4899 1484.09 94.2476 1484.09 95.1663V104.5H1482.5V102.325H1482.4C1482.21 102.731 1481.93 103.125 1481.55 103.507C1481.17 103.888 1480.7 104.202 1480.14 104.446C1479.57 104.691 1478.9 104.813 1478.14 104.813ZM1478.35 103.355C1479.2 103.355 1479.94 103.167 1480.56 102.791C1481.18 102.415 1481.65 101.917 1481.99 101.296C1482.33 100.67 1482.5 99.9808 1482.5 99.2291V97.2425C1482.38 97.3558 1482.18 97.4572 1481.9 97.5467C1481.62 97.6362 1481.3 97.7168 1480.94 97.7884C1480.58 97.854 1480.22 97.9107 1479.87 97.9584C1479.51 98.0061 1479.19 98.0479 1478.9 98.0837C1478.12 98.1791 1477.46 98.3283 1476.91 98.5311C1476.36 98.7339 1475.94 99.0143 1475.65 99.3723C1475.36 99.7243 1475.21 100.178 1475.21 100.733C1475.21 101.568 1475.51 102.215 1476.11 102.674C1476.7 103.128 1477.45 103.355 1478.35 103.355ZM1489.92 95.9091V104.5H1488.33V90.7545H1489.88V92.9112H1490.02C1490.34 92.2072 1490.84 91.6435 1491.52 91.2199C1492.21 90.7903 1493.06 90.5756 1494.06 90.5756C1494.99 90.5756 1495.8 90.7695 1496.5 91.1572C1497.2 91.5391 1497.75 92.1028 1498.14 92.8486C1498.53 93.5943 1498.73 94.5101 1498.73 95.5959V104.5H1497.13V95.6943C1497.13 94.5668 1496.82 93.6749 1496.19 93.0186C1495.56 92.3624 1494.72 92.0342 1493.66 92.0342C1492.94 92.0342 1492.3 92.1893 1491.74 92.4996C1491.18 92.8098 1490.73 93.2572 1490.4 93.8419C1490.08 94.4206 1489.92 95.1097 1489.92 95.9091ZM1506.76 104.813C1505.93 104.813 1505.17 104.652 1504.49 104.33C1503.8 104.002 1503.26 103.531 1502.85 102.916C1502.44 102.296 1502.24 101.544 1502.24 100.661C1502.24 99.9808 1502.37 99.4081 1502.63 98.9428C1502.88 98.4774 1503.25 98.0956 1503.72 97.7973C1504.19 97.499 1504.75 97.2634 1505.39 97.0903C1506.04 96.9173 1506.75 96.7831 1507.52 96.6876C1508.29 96.5922 1508.94 96.5087 1509.47 96.4371C1510.01 96.3655 1510.42 96.2521 1510.7 96.097C1510.98 95.9419 1511.12 95.6913 1511.12 95.3453V95.0232C1511.12 94.0865 1510.84 93.3497 1510.28 92.8128C1509.72 92.2699 1508.92 91.9984 1507.88 91.9984C1506.89 91.9984 1506.08 92.2162 1505.45 92.6517C1504.83 93.0872 1504.4 93.6003 1504.15 94.1909L1502.63 93.645C1502.95 92.8933 1503.37 92.2937 1503.92 91.8463C1504.47 91.3929 1505.09 91.0678 1505.77 90.8709C1506.45 90.668 1507.14 90.5666 1507.83 90.5666C1508.36 90.5666 1508.91 90.6352 1509.47 90.7724C1510.04 90.9097 1510.58 91.1483 1511.06 91.4884C1511.55 91.8224 1511.95 92.2908 1512.26 92.8933C1512.56 93.4899 1512.71 94.2476 1512.71 95.1663V104.5H1511.12V102.325H1511.02C1510.83 102.731 1510.55 103.125 1510.17 103.507C1509.79 103.888 1509.32 104.202 1508.76 104.446C1508.19 104.691 1507.52 104.813 1506.76 104.813ZM1506.98 103.355C1507.82 103.355 1508.56 103.167 1509.18 102.791C1509.8 102.415 1510.27 101.917 1510.61 101.296C1510.95 100.67 1511.12 99.9808 1511.12 99.2291V97.2425C1511 97.3558 1510.8 97.4572 1510.52 97.5467C1510.24 97.6362 1509.93 97.7168 1509.56 97.7884C1509.2 97.854 1508.85 97.9107 1508.49 97.9584C1508.13 98.0061 1507.81 98.0479 1507.52 98.0837C1506.75 98.1791 1506.08 98.3283 1505.53 98.5311C1504.99 98.7339 1504.56 99.0143 1504.27 99.3723C1503.98 99.7243 1503.83 100.178 1503.83 100.733C1503.83 101.568 1504.13 102.215 1504.73 102.674C1505.33 103.128 1506.07 103.355 1506.98 103.355ZM1518.54 95.9091V104.5H1516.95V90.7545H1518.5V92.9112H1518.64C1518.96 92.2072 1519.46 91.6435 1520.14 91.2199C1520.83 90.7903 1521.68 90.5756 1522.68 90.5756C1523.61 90.5756 1524.42 90.7695 1525.12 91.1572C1525.82 91.5391 1526.37 92.1028 1526.76 92.8486C1527.15 93.5943 1527.35 94.5101 1527.35 95.5959V104.5H1525.75V95.6943C1525.75 94.5668 1525.44 93.6749 1524.81 93.0186C1524.18 92.3624 1523.34 92.0342 1522.28 92.0342C1521.56 92.0342 1520.92 92.1893 1520.36 92.4996C1519.8 92.8098 1519.35 93.2572 1519.02 93.8419C1518.7 94.4206 1518.54 95.1097 1518.54 95.9091ZM1548.91 90.7545C1548.81 89.7344 1548.36 88.923 1547.56 88.3205C1546.76 87.7179 1545.76 87.4166 1544.54 87.4166C1543.69 87.4166 1542.94 87.5628 1542.29 87.8551C1541.65 88.1474 1541.14 88.5531 1540.77 89.0722C1540.4 89.5852 1540.22 90.1699 1540.22 90.8261C1540.22 91.3094 1540.33 91.733 1540.54 92.0969C1540.74 92.4608 1541.02 92.774 1541.38 93.0365C1541.73 93.293 1542.13 93.5138 1542.56 93.6987C1542.99 93.8837 1543.43 94.0388 1543.87 94.1641L1545.81 94.7189C1546.39 94.88 1546.98 95.0858 1547.56 95.3364C1548.15 95.5869 1548.68 95.9031 1549.16 96.2849C1549.65 96.6608 1550.04 97.1232 1550.33 97.672C1550.63 98.2149 1550.78 98.8682 1550.78 99.6318C1550.78 100.61 1550.53 101.49 1550.02 102.272C1549.51 103.053 1548.79 103.674 1547.84 104.133C1546.89 104.587 1545.75 104.813 1544.43 104.813C1543.18 104.813 1542.1 104.607 1541.18 104.196C1540.26 103.778 1539.54 103.202 1539.01 102.469C1538.49 101.735 1538.19 100.885 1538.13 99.9182H1539.85C1539.91 100.64 1540.14 101.252 1540.56 101.753C1540.98 102.254 1541.52 102.636 1542.19 102.898C1542.86 103.155 1543.61 103.283 1544.43 103.283C1545.34 103.283 1546.15 103.131 1546.86 102.827C1547.58 102.516 1548.14 102.087 1548.54 101.538C1548.96 100.983 1549.16 100.339 1549.16 99.605C1549.16 98.9845 1549 98.4655 1548.68 98.0479C1548.36 97.6243 1547.91 97.2693 1547.33 96.983C1546.76 96.6966 1546.09 96.443 1545.33 96.2223L1543.14 95.578C1541.7 95.1484 1540.59 94.5548 1539.79 93.7972C1539 93.0395 1538.6 92.073 1538.6 90.8977C1538.6 89.9134 1538.87 89.0483 1539.39 88.3026C1539.92 87.5509 1540.64 86.9662 1541.54 86.5486C1542.44 86.125 1543.46 85.9132 1544.59 85.9132C1545.73 85.9132 1546.74 86.122 1547.61 86.5396C1548.49 86.9572 1549.19 87.533 1549.7 88.2668C1550.22 88.9946 1550.5 89.8239 1550.53 90.7545H1548.91ZM1556.07 95.9091V104.5H1554.48V86.1727H1556.07V92.9112H1556.21C1556.54 92.2013 1557.03 91.6345 1557.71 91.2109C1558.39 90.7874 1559.25 90.5756 1560.29 90.5756C1561.22 90.5756 1562.03 90.7665 1562.74 91.1483C1563.44 91.5301 1563.99 92.0939 1564.38 92.8396C1564.78 93.5854 1564.98 94.5041 1564.98 95.5959V104.5H1563.37V95.6943C1563.37 94.5608 1563.06 93.6689 1562.42 93.0186C1561.8 92.3624 1560.95 92.0342 1559.88 92.0342C1559.15 92.0342 1558.5 92.1893 1557.92 92.4996C1557.35 92.8098 1556.9 93.2572 1556.56 93.8419C1556.23 94.4206 1556.07 95.1097 1556.07 95.9091ZM1573.01 104.813C1572.18 104.813 1571.42 104.652 1570.74 104.33C1570.05 104.002 1569.5 103.531 1569.1 102.916C1568.69 102.296 1568.49 101.544 1568.49 100.661C1568.49 99.9808 1568.62 99.4081 1568.87 98.9428C1569.13 98.4774 1569.49 98.0956 1569.97 97.7973C1570.44 97.499 1571 97.2634 1571.64 97.0903C1572.28 96.9173 1572.99 96.7831 1573.77 96.6876C1574.54 96.5922 1575.19 96.5087 1575.72 96.4371C1576.26 96.3655 1576.67 96.2521 1576.95 96.097C1577.23 95.9419 1577.37 95.6913 1577.37 95.3453V95.0232C1577.37 94.0865 1577.09 93.3497 1576.53 92.8128C1575.97 92.2699 1575.17 91.9984 1574.13 91.9984C1573.14 91.9984 1572.33 92.2162 1571.7 92.6517C1571.08 93.0872 1570.65 93.6003 1570.4 94.1909L1568.88 93.645C1569.19 92.8933 1569.62 92.2937 1570.17 91.8463C1570.72 91.3929 1571.34 91.0678 1572.02 90.8709C1572.7 90.668 1573.38 90.5666 1574.08 90.5666C1574.61 90.5666 1575.15 90.6352 1575.72 90.7724C1576.29 90.9097 1576.82 91.1483 1577.31 91.4884C1577.8 91.8224 1578.2 92.2908 1578.5 92.8933C1578.81 93.4899 1578.96 94.2476 1578.96 95.1663V104.5H1577.37V102.325H1577.27C1577.08 102.731 1576.79 103.125 1576.42 103.507C1576.04 103.888 1575.57 104.202 1575 104.446C1574.44 104.691 1573.77 104.813 1573.01 104.813ZM1573.22 103.355C1574.07 103.355 1574.8 103.167 1575.43 102.791C1576.05 102.415 1576.52 101.917 1576.86 101.296C1577.2 100.67 1577.37 99.9808 1577.37 99.2291V97.2425C1577.25 97.3558 1577.05 97.4572 1576.77 97.5467C1576.49 97.6362 1576.17 97.7168 1575.81 97.7884C1575.45 97.854 1575.09 97.9107 1574.74 97.9584C1574.38 98.0061 1574.06 98.0479 1573.77 98.0837C1572.99 98.1791 1572.33 98.3283 1571.78 98.5311C1571.23 98.7339 1570.81 99.0143 1570.52 99.3723C1570.23 99.7243 1570.08 100.178 1570.08 100.733C1570.08 101.568 1570.38 102.215 1570.98 102.674C1571.57 103.128 1572.32 103.355 1573.22 103.355ZM1584.79 95.9091V104.5H1583.2V86.1727H1584.79V92.9112H1584.93C1585.26 92.2013 1585.75 91.6345 1586.43 91.2109C1587.11 90.7874 1587.97 90.5756 1589 90.5756C1589.94 90.5756 1590.75 90.7665 1591.46 91.1483C1592.16 91.5301 1592.71 92.0939 1593.1 92.8396C1593.5 93.5854 1593.69 94.5041 1593.69 95.5959V104.5H1592.09V95.6943C1592.09 94.5608 1591.78 93.6689 1591.14 93.0186C1590.52 92.3624 1589.67 92.0342 1588.6 92.0342C1587.87 92.0342 1587.22 92.1893 1586.64 92.4996C1586.07 92.8098 1585.62 93.2572 1585.28 93.8419C1584.95 94.4206 1584.79 95.1097 1584.79 95.9091Z" fill="black"/>
<path d="M1452.46 154H1450.71L1457.37 135.673H1459.16L1465.83 154H1464.08L1458.33 137.847H1458.21L1452.46 154ZM1453.72 146.975H1462.81V148.479H1453.72V146.975ZM1470.23 145.409V154H1468.64V140.255H1470.19V142.411H1470.33C1470.65 141.707 1471.16 141.143 1471.84 140.72C1472.52 140.29 1473.37 140.076 1474.38 140.076C1475.3 140.076 1476.11 140.269 1476.81 140.657C1477.51 141.039 1478.06 141.603 1478.45 142.349C1478.84 143.094 1479.04 144.01 1479.04 145.096V154H1477.45V145.194C1477.45 144.067 1477.13 143.175 1476.5 142.519C1475.87 141.862 1475.03 141.534 1473.97 141.534C1473.25 141.534 1472.61 141.689 1472.05 142C1471.49 142.31 1471.04 142.757 1470.72 143.342C1470.39 143.921 1470.23 144.61 1470.23 145.409ZM1492.47 143.27L1491.01 143.682C1490.87 143.27 1490.66 142.897 1490.4 142.563C1490.14 142.229 1489.8 141.964 1489.37 141.767C1488.96 141.57 1488.44 141.472 1487.82 141.472C1486.88 141.472 1486.12 141.692 1485.52 142.134C1484.93 142.575 1484.63 143.145 1484.63 143.843C1484.63 144.434 1484.83 144.914 1485.24 145.284C1485.65 145.648 1486.28 145.937 1487.14 146.152L1489.21 146.662C1490.36 146.942 1491.23 147.387 1491.8 147.995C1492.38 148.604 1492.67 149.367 1492.67 150.286C1492.67 151.062 1492.45 151.751 1492.02 152.353C1491.59 152.956 1490.99 153.43 1490.22 153.776C1489.46 154.116 1488.57 154.286 1487.57 154.286C1486.22 154.286 1485.12 153.985 1484.25 153.383C1483.37 152.774 1482.82 151.897 1482.57 150.752L1484.1 150.376C1484.3 151.193 1484.68 151.811 1485.26 152.228C1485.83 152.646 1486.6 152.855 1487.54 152.855C1488.59 152.855 1489.44 152.619 1490.07 152.148C1490.7 151.67 1491.02 151.074 1491.02 150.358C1491.02 149.803 1490.83 149.338 1490.46 148.962C1490.09 148.58 1489.53 148.3 1488.78 148.121L1486.54 147.584C1485.34 147.297 1484.46 146.844 1483.89 146.223C1483.31 145.603 1483.03 144.833 1483.03 143.915C1483.03 143.157 1483.23 142.492 1483.65 141.919C1484.06 141.34 1484.62 140.887 1485.35 140.559C1486.07 140.231 1486.89 140.067 1487.82 140.067C1489.07 140.067 1490.08 140.353 1490.83 140.926C1491.59 141.492 1492.13 142.274 1492.47 143.27ZM1497.75 145.409V154H1496.15V135.673H1497.75V142.411H1497.89C1498.21 141.701 1498.71 141.135 1499.38 140.711C1500.06 140.287 1500.92 140.076 1501.96 140.076C1502.89 140.076 1503.71 140.266 1504.41 140.648C1505.12 141.03 1505.67 141.594 1506.06 142.34C1506.45 143.085 1506.65 144.004 1506.65 145.096V154H1505.05V145.194C1505.05 144.061 1504.73 143.169 1504.1 142.519C1503.47 141.862 1502.63 141.534 1501.56 141.534C1500.83 141.534 1500.17 141.689 1499.6 142C1499.03 142.31 1498.57 142.757 1498.24 143.342C1497.91 143.921 1497.75 144.61 1497.75 145.409ZM1518.26 135.673H1520.2L1526.85 151.637H1527.01L1533.66 135.673H1535.59V154H1534.01V139.208H1533.87L1527.69 154H1526.17L1519.98 139.208H1519.84V154H1518.26V135.673ZM1545.69 154.286C1544.41 154.286 1543.3 153.988 1542.36 153.391C1541.42 152.789 1540.7 151.957 1540.18 150.895C1539.68 149.827 1539.42 148.598 1539.42 147.208C1539.42 145.824 1539.68 144.595 1540.18 143.521C1540.7 142.441 1541.4 141.597 1542.31 140.988C1543.21 140.374 1544.26 140.067 1545.45 140.067C1546.19 140.067 1546.91 140.204 1547.6 140.478C1548.3 140.747 1548.92 141.161 1549.46 141.722C1550.02 142.277 1550.46 142.978 1550.78 143.825C1551.1 144.666 1551.26 145.663 1551.26 146.814V147.602H1540.52V146.197H1549.63C1549.63 145.314 1549.46 144.52 1549.1 143.816C1548.75 143.106 1548.25 142.545 1547.62 142.134C1546.99 141.722 1546.27 141.516 1545.45 141.516C1544.58 141.516 1543.81 141.749 1543.15 142.214C1542.48 142.68 1541.97 143.294 1541.59 144.058C1541.22 144.821 1541.03 145.657 1541.03 146.563V147.405C1541.03 148.496 1541.21 149.451 1541.59 150.268C1541.97 151.08 1542.51 151.709 1543.21 152.157C1543.91 152.604 1544.73 152.828 1545.69 152.828C1546.34 152.828 1546.91 152.726 1547.4 152.523C1547.89 152.321 1548.31 152.049 1548.64 151.709C1548.98 151.363 1549.24 150.984 1549.41 150.573L1550.92 151.065C1550.71 151.643 1550.37 152.177 1549.89 152.667C1549.42 153.156 1548.83 153.55 1548.12 153.848C1547.42 154.14 1546.61 154.286 1545.69 154.286ZM1556.37 145.409V154H1554.77V135.673H1556.37V142.411H1556.51C1556.83 141.701 1557.33 141.135 1558 140.711C1558.68 140.287 1559.54 140.076 1560.58 140.076C1561.51 140.076 1562.33 140.266 1563.03 140.648C1563.74 141.03 1564.29 141.594 1564.68 142.34C1565.07 143.085 1565.27 144.004 1565.27 145.096V154H1563.67V145.194C1563.67 144.061 1563.35 143.169 1562.72 142.519C1562.09 141.862 1561.25 141.534 1560.18 141.534C1559.44 141.534 1558.79 141.689 1558.22 142C1557.65 142.31 1557.19 142.757 1556.86 143.342C1556.53 143.921 1556.37 144.61 1556.37 145.409ZM1574.88 140.255V141.642H1568.32V140.255H1574.88ZM1570.37 136.961H1571.97V150.412C1571.97 150.984 1572.07 151.435 1572.27 151.763C1572.46 152.085 1572.72 152.315 1573.04 152.452C1573.35 152.583 1573.69 152.649 1574.05 152.649C1574.26 152.649 1574.43 152.637 1574.58 152.613C1574.73 152.583 1574.86 152.553 1574.98 152.523L1575.32 153.964C1575.16 154.024 1574.97 154.078 1574.74 154.125C1574.52 154.179 1574.24 154.206 1573.9 154.206C1573.32 154.206 1572.76 154.078 1572.21 153.821C1571.68 153.564 1571.23 153.183 1570.89 152.676C1570.54 152.168 1570.37 151.539 1570.37 150.787V136.961ZM1582.34 154.313C1581.51 154.313 1580.75 154.152 1580.06 153.83C1579.38 153.502 1578.83 153.031 1578.43 152.416C1578.02 151.796 1577.82 151.044 1577.82 150.161C1577.82 149.481 1577.94 148.908 1578.2 148.443C1578.46 147.977 1578.82 147.596 1579.29 147.297C1579.76 146.999 1580.32 146.763 1580.97 146.59C1581.61 146.417 1582.32 146.283 1583.1 146.188C1583.87 146.092 1584.52 146.009 1585.05 145.937C1585.58 145.865 1585.99 145.752 1586.27 145.597C1586.55 145.442 1586.69 145.191 1586.69 144.845V144.523C1586.69 143.587 1586.41 142.85 1585.85 142.313C1585.3 141.77 1584.5 141.498 1583.45 141.498C1582.46 141.498 1581.66 141.716 1581.03 142.152C1580.41 142.587 1579.97 143.1 1579.72 143.691L1578.21 143.145C1578.52 142.393 1578.95 141.794 1579.5 141.346C1580.05 140.893 1580.66 140.568 1581.34 140.371C1582.02 140.168 1582.71 140.067 1583.41 140.067C1583.93 140.067 1584.48 140.135 1585.05 140.272C1585.62 140.41 1586.15 140.648 1586.64 140.988C1587.13 141.322 1587.53 141.791 1587.83 142.393C1588.13 142.99 1588.29 143.748 1588.29 144.666V154H1586.69V151.825H1586.6C1586.4 152.231 1586.12 152.625 1585.75 153.007C1585.37 153.388 1584.9 153.702 1584.33 153.946C1583.76 154.191 1583.1 154.313 1582.34 154.313ZM1582.55 152.855C1583.4 152.855 1584.13 152.667 1584.75 152.291C1585.37 151.915 1585.85 151.417 1586.18 150.796C1586.52 150.17 1586.69 149.481 1586.69 148.729V146.742C1586.57 146.856 1586.37 146.957 1586.09 147.047C1585.82 147.136 1585.5 147.217 1585.14 147.288C1584.78 147.354 1584.42 147.411 1584.06 147.458C1583.7 147.506 1583.38 147.548 1583.1 147.584C1582.32 147.679 1581.66 147.828 1581.11 148.031C1580.56 148.234 1580.14 148.514 1579.85 148.872C1579.56 149.224 1579.41 149.678 1579.41 150.233C1579.41 151.068 1579.71 151.715 1580.3 152.174C1580.9 152.628 1581.65 152.855 1582.55 152.855Z" fill="black"/>
<path d="M1451.32 186.676V185.173H1464.61V186.676H1458.81V203.5H1457.13V186.676H1451.32ZM1470.02 203.813C1469.19 203.813 1468.43 203.652 1467.75 203.33C1467.06 203.002 1466.51 202.531 1466.11 201.916C1465.7 201.296 1465.5 200.544 1465.5 199.661C1465.5 198.981 1465.63 198.408 1465.88 197.943C1466.14 197.477 1466.5 197.096 1466.98 196.797C1467.45 196.499 1468.01 196.263 1468.65 196.09C1469.29 195.917 1470 195.783 1470.78 195.688C1471.55 195.592 1472.2 195.509 1472.73 195.437C1473.27 195.365 1473.68 195.252 1473.96 195.097C1474.24 194.942 1474.38 194.691 1474.38 194.345V194.023C1474.38 193.087 1474.1 192.35 1473.54 191.813C1472.98 191.27 1472.18 190.998 1471.14 190.998C1470.15 190.998 1469.34 191.216 1468.71 191.652C1468.09 192.087 1467.66 192.6 1467.41 193.191L1465.89 192.645C1466.2 191.893 1466.63 191.294 1467.18 190.846C1467.73 190.393 1468.35 190.068 1469.03 189.871C1469.71 189.668 1470.39 189.567 1471.09 189.567C1471.62 189.567 1472.16 189.635 1472.73 189.772C1473.3 189.91 1473.83 190.148 1474.32 190.488C1474.81 190.822 1475.21 191.291 1475.51 191.893C1475.82 192.49 1475.97 193.248 1475.97 194.166V203.5H1474.38V201.325H1474.28C1474.09 201.731 1473.8 202.125 1473.43 202.507C1473.05 202.888 1472.58 203.202 1472.01 203.446C1471.45 203.691 1470.78 203.813 1470.02 203.813ZM1470.23 202.355C1471.08 202.355 1471.81 202.167 1472.43 201.791C1473.06 201.415 1473.53 200.917 1473.87 200.296C1474.21 199.67 1474.38 198.981 1474.38 198.229V196.242C1474.26 196.356 1474.06 196.457 1473.78 196.547C1473.5 196.636 1473.18 196.717 1472.82 196.788C1472.46 196.854 1472.1 196.911 1471.75 196.958C1471.39 197.006 1471.07 197.048 1470.78 197.084C1470 197.179 1469.34 197.328 1468.79 197.531C1468.24 197.734 1467.82 198.014 1467.53 198.372C1467.24 198.724 1467.09 199.178 1467.09 199.733C1467.09 200.568 1467.39 201.215 1467.99 201.674C1468.58 202.128 1469.33 202.355 1470.23 202.355ZM1481.8 194.909V203.5H1480.21V189.755H1481.76V191.911H1481.9C1482.22 191.207 1482.72 190.643 1483.4 190.22C1484.09 189.79 1484.93 189.576 1485.94 189.576C1486.87 189.576 1487.68 189.769 1488.38 190.157C1489.08 190.539 1489.63 191.103 1490.01 191.849C1490.41 192.594 1490.61 193.51 1490.61 194.596V203.5H1489.01V194.694C1489.01 193.567 1488.7 192.675 1488.06 192.019C1487.44 191.362 1486.6 191.034 1485.54 191.034C1484.82 191.034 1484.18 191.189 1483.62 191.5C1483.06 191.81 1482.61 192.257 1482.28 192.842C1481.96 193.421 1481.8 194.11 1481.8 194.909ZM1503.53 198.247V189.755H1505.13V203.5H1503.53V201.218H1503.41C1503.09 201.922 1502.58 202.51 1501.88 202.981C1501.18 203.446 1500.33 203.679 1499.32 203.679C1498.44 203.679 1497.66 203.488 1496.98 203.106C1496.3 202.718 1495.77 202.152 1495.38 201.406C1494.99 200.66 1494.8 199.744 1494.8 198.659V189.755H1496.39V198.56C1496.39 199.634 1496.71 200.499 1497.34 201.155C1497.97 201.806 1498.79 202.131 1499.78 202.131C1500.4 202.131 1500.99 201.982 1501.57 201.683C1502.14 201.385 1502.61 200.95 1502.98 200.377C1503.35 199.798 1503.53 199.088 1503.53 198.247ZM1518.58 192.77L1517.12 193.182C1516.98 192.77 1516.77 192.397 1516.51 192.063C1516.25 191.729 1515.91 191.464 1515.48 191.267C1515.07 191.07 1514.55 190.972 1513.93 190.972C1513 190.972 1512.23 191.192 1511.64 191.634C1511.04 192.075 1510.74 192.645 1510.74 193.343C1510.74 193.934 1510.94 194.414 1511.35 194.784C1511.76 195.148 1512.39 195.437 1513.25 195.652L1515.32 196.162C1516.47 196.442 1517.34 196.887 1517.91 197.495C1518.49 198.104 1518.78 198.867 1518.78 199.786C1518.78 200.562 1518.56 201.251 1518.13 201.853C1517.7 202.456 1517.1 202.93 1516.33 203.276C1515.57 203.616 1514.68 203.786 1513.68 203.786C1512.33 203.786 1511.23 203.485 1510.36 202.883C1509.48 202.274 1508.93 201.397 1508.68 200.252L1510.21 199.876C1510.41 200.693 1510.79 201.311 1511.37 201.728C1511.95 202.146 1512.71 202.355 1513.65 202.355C1514.7 202.355 1515.55 202.119 1516.18 201.648C1516.81 201.17 1517.13 200.574 1517.13 199.858C1517.13 199.303 1516.94 198.838 1516.58 198.462C1516.21 198.08 1515.64 197.8 1514.89 197.621L1512.65 197.084C1511.45 196.797 1510.57 196.344 1510 195.723C1509.42 195.103 1509.14 194.333 1509.14 193.415C1509.14 192.657 1509.34 191.992 1509.76 191.419C1510.17 190.84 1510.73 190.387 1511.46 190.059C1512.18 189.731 1513 189.567 1513.93 189.567C1515.19 189.567 1516.19 189.853 1516.94 190.426C1517.7 190.992 1518.25 191.774 1518.58 192.77ZM1523.86 194.909V203.5H1522.26V185.173H1523.86V191.911H1524C1524.32 191.201 1524.82 190.635 1525.49 190.211C1526.17 189.787 1527.03 189.576 1528.07 189.576C1529 189.576 1529.82 189.766 1530.52 190.148C1531.23 190.53 1531.78 191.094 1532.17 191.84C1532.56 192.585 1532.76 193.504 1532.76 194.596V203.5H1531.16V194.694C1531.16 193.561 1530.84 192.669 1530.21 192.019C1529.58 191.362 1528.74 191.034 1527.67 191.034C1526.94 191.034 1526.28 191.189 1525.71 191.5C1525.14 191.81 1524.68 192.257 1524.35 192.842C1524.02 193.421 1523.86 194.11 1523.86 194.909ZM1557.06 190.9C1556.89 190.291 1556.64 189.722 1556.32 189.191C1556 188.654 1555.6 188.186 1555.12 187.786C1554.65 187.38 1554.11 187.064 1553.48 186.837C1552.87 186.611 1552.18 186.497 1551.43 186.497C1550.23 186.497 1549.17 186.807 1548.22 187.428C1547.28 188.048 1546.53 188.943 1545.99 190.112C1545.44 191.282 1545.17 192.69 1545.17 194.336C1545.17 195.977 1545.45 197.382 1545.99 198.551C1546.54 199.721 1547.3 200.618 1548.25 201.245C1549.21 201.865 1550.31 202.176 1551.54 202.176C1552.67 202.176 1553.67 201.925 1554.53 201.424C1555.4 200.923 1556.07 200.207 1556.55 199.276C1557.04 198.345 1557.28 197.239 1557.27 195.956L1557.81 196.126H1551.94V194.623H1558.9V196.126C1558.9 197.689 1558.58 199.04 1557.95 200.18C1557.32 201.319 1556.45 202.199 1555.35 202.82C1554.24 203.44 1552.97 203.751 1551.54 203.751C1549.94 203.751 1548.54 203.366 1547.35 202.596C1546.15 201.821 1545.21 200.729 1544.54 199.321C1543.88 197.907 1543.55 196.245 1543.55 194.336C1543.55 192.899 1543.74 191.601 1544.12 190.444C1544.51 189.286 1545.05 188.296 1545.74 187.473C1546.45 186.649 1547.28 186.02 1548.24 185.584C1549.2 185.143 1550.26 184.922 1551.43 184.922C1552.43 184.922 1553.34 185.08 1554.17 185.396C1555.01 185.713 1555.74 186.148 1556.38 186.703C1557.01 187.252 1557.54 187.887 1557.94 188.609C1558.35 189.325 1558.63 190.089 1558.77 190.9H1557.06ZM1568.06 203.786C1566.88 203.786 1565.83 203.485 1564.91 202.883C1564.01 202.28 1563.3 201.448 1562.78 200.386C1562.27 199.318 1562.02 198.086 1562.02 196.69C1562.02 195.282 1562.27 194.044 1562.78 192.976C1563.3 191.902 1564.01 191.067 1564.91 190.47C1565.83 189.868 1566.88 189.567 1568.06 189.567C1569.25 189.567 1570.3 189.868 1571.21 190.47C1572.11 191.073 1572.82 191.908 1573.34 192.976C1573.85 194.044 1574.11 195.282 1574.11 196.69C1574.11 198.086 1573.86 199.318 1573.34 200.386C1572.83 201.448 1572.12 202.28 1571.21 202.883C1570.3 203.485 1569.25 203.786 1568.06 203.786ZM1568.06 202.328C1569.02 202.328 1569.83 202.071 1570.49 201.558C1571.15 201.045 1571.65 200.362 1571.99 199.509C1572.34 198.656 1572.51 197.716 1572.51 196.69C1572.51 195.664 1572.34 194.721 1571.99 193.862C1571.65 193.003 1571.15 192.314 1570.49 191.795C1569.83 191.276 1569.02 191.016 1568.06 191.016C1567.12 191.016 1566.31 191.276 1565.64 191.795C1564.98 192.314 1564.47 193.003 1564.13 193.862C1563.79 194.721 1563.62 195.664 1563.62 196.69C1563.62 197.716 1563.79 198.656 1564.13 199.509C1564.47 200.362 1564.98 201.045 1565.64 201.558C1566.3 202.071 1567.11 202.328 1568.06 202.328ZM1579.2 185.173V203.5H1577.61V185.173H1579.2ZM1586.47 203.5L1582.32 189.755H1584L1587.26 201.093H1587.37L1590.62 189.755H1592.31L1595.54 201.066H1595.66L1598.92 189.755H1600.6L1596.45 203.5H1594.8L1591.54 192.233H1591.37L1588.12 203.5H1586.47ZM1607.54 203.813C1606.71 203.813 1605.95 203.652 1605.26 203.33C1604.58 203.002 1604.03 202.531 1603.63 201.916C1603.22 201.296 1603.02 200.544 1603.02 199.661C1603.02 198.981 1603.14 198.408 1603.4 197.943C1603.66 197.477 1604.02 197.096 1604.49 196.797C1604.96 196.499 1605.52 196.263 1606.17 196.09C1606.81 195.917 1607.52 195.783 1608.3 195.688C1609.07 195.592 1609.72 195.509 1610.25 195.437C1610.78 195.365 1611.19 195.252 1611.47 195.097C1611.75 194.942 1611.89 194.691 1611.89 194.345V194.023C1611.89 193.087 1611.61 192.35 1611.05 191.813C1610.5 191.27 1609.7 190.998 1608.65 190.998C1607.66 190.998 1606.86 191.216 1606.23 191.652C1605.61 192.087 1605.17 192.6 1604.92 193.191L1603.41 192.645C1603.72 191.893 1604.15 191.294 1604.7 190.846C1605.25 190.393 1605.86 190.068 1606.54 189.871C1607.22 189.668 1607.91 189.567 1608.61 189.567C1609.13 189.567 1609.68 189.635 1610.25 189.772C1610.82 189.91 1611.35 190.148 1611.84 190.488C1612.33 190.822 1612.73 191.291 1613.03 191.893C1613.33 192.49 1613.49 193.248 1613.49 194.166V203.5H1611.89V201.325H1611.8C1611.6 201.731 1611.32 202.125 1610.95 202.507C1610.57 202.888 1610.1 203.202 1609.53 203.446C1608.96 203.691 1608.3 203.813 1607.54 203.813ZM1607.75 202.355C1608.6 202.355 1609.33 202.167 1609.95 201.791C1610.57 201.415 1611.05 200.917 1611.38 200.296C1611.72 199.67 1611.89 198.981 1611.89 198.229V196.242C1611.77 196.356 1611.57 196.457 1611.29 196.547C1611.02 196.636 1610.7 196.717 1610.34 196.788C1609.98 196.854 1609.62 196.911 1609.26 196.958C1608.9 197.006 1608.58 197.048 1608.3 197.084C1607.52 197.179 1606.86 197.328 1606.31 197.531C1605.76 197.734 1605.34 198.014 1605.05 198.372C1604.76 198.724 1604.61 199.178 1604.61 199.733C1604.61 200.568 1604.91 201.215 1605.5 201.674C1606.1 202.128 1606.85 202.355 1607.75 202.355ZM1619.32 185.173V203.5H1617.72V185.173H1619.32ZM1627.37 203.813C1626.54 203.813 1625.78 203.652 1625.1 203.33C1624.41 203.002 1623.87 202.531 1623.46 201.916C1623.05 201.296 1622.85 200.544 1622.85 199.661C1622.85 198.981 1622.98 198.408 1623.24 197.943C1623.49 197.477 1623.86 197.096 1624.33 196.797C1624.8 196.499 1625.36 196.263 1626 196.09C1626.65 195.917 1627.36 195.783 1628.13 195.688C1628.9 195.592 1629.55 195.509 1630.08 195.437C1630.62 195.365 1631.03 195.252 1631.31 195.097C1631.59 194.942 1631.73 194.691 1631.73 194.345V194.023C1631.73 193.087 1631.45 192.35 1630.89 191.813C1630.33 191.27 1629.53 190.998 1628.49 190.998C1627.5 190.998 1626.69 191.216 1626.06 191.652C1625.44 192.087 1625.01 192.6 1624.76 193.191L1623.25 192.645C1623.56 191.893 1623.99 191.294 1624.53 190.846C1625.08 190.393 1625.7 190.068 1626.38 189.871C1627.06 189.668 1627.75 189.567 1628.44 189.567C1628.97 189.567 1629.52 189.635 1630.08 189.772C1630.66 189.91 1631.19 190.148 1631.68 190.488C1632.16 190.822 1632.56 191.291 1632.87 191.893C1633.17 192.49 1633.32 193.248 1633.32 194.166V203.5H1631.73V201.325H1631.63C1631.44 201.731 1631.16 202.125 1630.78 202.507C1630.4 202.888 1629.93 203.202 1629.37 203.446C1628.8 203.691 1628.13 203.813 1627.37 203.813ZM1627.59 202.355C1628.43 202.355 1629.17 202.167 1629.79 201.791C1630.41 201.415 1630.88 200.917 1631.22 200.296C1631.56 199.67 1631.73 198.981 1631.73 198.229V196.242C1631.61 196.356 1631.41 196.457 1631.13 196.547C1630.86 196.636 1630.54 196.717 1630.17 196.788C1629.81 196.854 1629.46 196.911 1629.1 196.958C1628.74 197.006 1628.42 197.048 1628.13 197.084C1627.36 197.179 1626.69 197.328 1626.14 197.531C1625.6 197.734 1625.18 198.014 1624.88 198.372C1624.59 198.724 1624.44 199.178 1624.44 199.733C1624.44 200.568 1624.74 201.215 1625.34 201.674C1625.94 202.128 1626.68 202.355 1627.59 202.355Z" fill="black"/>
<path d="M1462.39 239.255C1462.28 238.234 1461.83 237.423 1461.03 236.82C1460.23 236.218 1459.23 235.917 1458.02 235.917C1457.17 235.917 1456.41 236.063 1455.76 236.355C1455.12 236.647 1454.61 237.053 1454.24 237.572C1453.88 238.085 1453.7 238.67 1453.7 239.326C1453.7 239.809 1453.8 240.233 1454.01 240.597C1454.22 240.961 1454.5 241.274 1454.85 241.537C1455.21 241.793 1455.6 242.014 1456.03 242.199C1456.47 242.384 1456.91 242.539 1457.35 242.664L1459.28 243.219C1459.86 243.38 1460.45 243.586 1461.03 243.836C1461.62 244.087 1462.15 244.403 1462.64 244.785C1463.13 245.161 1463.52 245.623 1463.81 246.172C1464.11 246.715 1464.26 247.368 1464.26 248.132C1464.26 249.11 1464 249.99 1463.49 250.772C1462.99 251.553 1462.26 252.174 1461.31 252.633C1460.36 253.087 1459.23 253.313 1457.9 253.313C1456.65 253.313 1455.57 253.107 1454.65 252.696C1453.73 252.278 1453.01 251.702 1452.49 250.969C1451.96 250.235 1451.67 249.385 1451.6 248.418H1453.32C1453.38 249.14 1453.62 249.752 1454.04 250.253C1454.45 250.754 1455 251.136 1455.66 251.398C1456.33 251.655 1457.08 251.783 1457.9 251.783C1458.81 251.783 1459.63 251.631 1460.34 251.327C1461.05 251.016 1461.61 250.587 1462.02 250.038C1462.43 249.483 1462.64 248.839 1462.64 248.105C1462.64 247.485 1462.47 246.965 1462.15 246.548C1461.83 246.124 1461.38 245.769 1460.8 245.483C1460.23 245.197 1459.56 244.943 1458.81 244.722L1456.61 244.078C1455.18 243.648 1454.06 243.055 1453.27 242.297C1452.47 241.539 1452.08 240.573 1452.08 239.398C1452.08 238.413 1452.34 237.548 1452.86 236.803C1453.39 236.051 1454.11 235.466 1455.01 235.049C1455.92 234.625 1456.94 234.413 1458.06 234.413C1459.2 234.413 1460.21 234.622 1461.09 235.04C1461.96 235.457 1462.66 236.033 1463.17 236.767C1463.69 237.495 1463.97 238.324 1464 239.255H1462.39ZM1471.79 253.313C1470.96 253.313 1470.2 253.152 1469.52 252.83C1468.83 252.502 1468.29 252.031 1467.88 251.416C1467.47 250.796 1467.27 250.044 1467.27 249.161C1467.27 248.481 1467.4 247.908 1467.66 247.443C1467.91 246.977 1468.28 246.596 1468.75 246.297C1469.22 245.999 1469.78 245.763 1470.42 245.59C1471.07 245.417 1471.78 245.283 1472.55 245.188C1473.32 245.092 1473.97 245.009 1474.5 244.937C1475.04 244.865 1475.45 244.752 1475.73 244.597C1476.01 244.442 1476.15 244.191 1476.15 243.845V243.523C1476.15 242.587 1475.87 241.85 1475.31 241.313C1474.75 240.77 1473.95 240.498 1472.91 240.498C1471.92 240.498 1471.11 240.716 1470.48 241.152C1469.86 241.587 1469.43 242.1 1469.18 242.691L1467.67 242.145C1467.98 241.393 1468.4 240.794 1468.95 240.346C1469.5 239.893 1470.12 239.568 1470.8 239.371C1471.48 239.168 1472.17 239.067 1472.86 239.067C1473.39 239.067 1473.94 239.135 1474.5 239.272C1475.07 239.41 1475.61 239.648 1476.09 239.988C1476.58 240.322 1476.98 240.791 1477.29 241.393C1477.59 241.99 1477.74 242.748 1477.74 243.666V253H1476.15V250.825H1476.05C1475.86 251.231 1475.58 251.625 1475.2 252.007C1474.82 252.388 1474.35 252.702 1473.79 252.946C1473.22 253.191 1472.55 253.313 1471.79 253.313ZM1472.01 251.855C1472.85 251.855 1473.59 251.667 1474.21 251.291C1474.83 250.915 1475.3 250.417 1475.64 249.796C1475.98 249.17 1476.15 248.481 1476.15 247.729V245.742C1476.03 245.856 1475.83 245.957 1475.55 246.047C1475.27 246.136 1474.96 246.217 1474.59 246.288C1474.23 246.354 1473.88 246.411 1473.52 246.458C1473.16 246.506 1472.84 246.548 1472.55 246.584C1471.78 246.679 1471.11 246.828 1470.56 247.031C1470.02 247.234 1469.6 247.514 1469.3 247.872C1469.01 248.224 1468.86 248.678 1468.86 249.233C1468.86 250.068 1469.16 250.715 1469.76 251.174C1470.36 251.628 1471.1 251.855 1472.01 251.855ZM1481.98 253V239.255H1483.53V241.366H1483.67C1483.94 240.657 1484.4 240.099 1485.04 239.693C1485.68 239.281 1486.46 239.076 1487.36 239.076C1488.31 239.076 1489.08 239.299 1489.69 239.747C1490.31 240.188 1490.77 240.797 1491.07 241.572H1491.19C1491.5 240.809 1492 240.203 1492.7 239.756C1493.4 239.302 1494.26 239.076 1495.26 239.076C1496.54 239.076 1497.54 239.478 1498.28 240.284C1499.02 241.083 1499.39 242.252 1499.39 243.792V253H1497.8V243.792C1497.8 242.706 1497.52 241.891 1496.97 241.349C1496.41 240.806 1495.68 240.534 1494.78 240.534C1493.73 240.534 1492.92 240.856 1492.35 241.501C1491.78 242.145 1491.5 242.962 1491.5 243.953V253H1489.87V243.648C1489.87 242.718 1489.61 241.966 1489.09 241.393C1488.57 240.821 1487.84 240.534 1486.9 240.534C1486.27 240.534 1485.7 240.689 1485.19 241C1484.69 241.31 1484.29 241.742 1484 242.297C1483.71 242.846 1483.57 243.478 1483.57 244.194V253H1481.98ZM1509.17 253.286C1507.88 253.286 1506.78 252.988 1505.84 252.391C1504.9 251.789 1504.18 250.957 1503.66 249.895C1503.16 248.827 1502.9 247.598 1502.9 246.208C1502.9 244.824 1503.16 243.595 1503.66 242.521C1504.18 241.441 1504.88 240.597 1505.78 239.988C1506.69 239.374 1507.74 239.067 1508.93 239.067C1509.67 239.067 1510.39 239.204 1511.08 239.478C1511.77 239.747 1512.4 240.161 1512.94 240.722C1513.5 241.277 1513.94 241.978 1514.26 242.825C1514.58 243.666 1514.74 244.663 1514.74 245.814V246.602H1504V245.197H1513.11C1513.11 244.314 1512.94 243.52 1512.58 242.816C1512.23 242.106 1511.73 241.545 1511.1 241.134C1510.47 240.722 1509.75 240.516 1508.93 240.516C1508.06 240.516 1507.29 240.749 1506.63 241.214C1505.96 241.68 1505.44 242.294 1505.07 243.058C1504.7 243.821 1504.51 244.657 1504.51 245.563V246.405C1504.51 247.496 1504.69 248.451 1505.07 249.268C1505.45 250.08 1505.99 250.709 1506.69 251.157C1507.39 251.604 1508.21 251.828 1509.17 251.828C1509.82 251.828 1510.39 251.726 1510.88 251.523C1511.37 251.321 1511.79 251.049 1512.12 250.709C1512.46 250.363 1512.72 249.984 1512.89 249.573L1514.4 250.065C1514.19 250.643 1513.85 251.177 1513.37 251.667C1512.9 252.156 1512.31 252.55 1511.6 252.848C1510.9 253.14 1510.09 253.286 1509.17 253.286ZM1523.81 253.286C1522.53 253.286 1521.42 252.988 1520.48 252.391C1519.54 251.789 1518.82 250.957 1518.31 249.895C1517.8 248.827 1517.55 247.598 1517.55 246.208C1517.55 244.824 1517.8 243.595 1518.31 242.521C1518.82 241.441 1519.53 240.597 1520.43 239.988C1521.33 239.374 1522.38 239.067 1523.57 239.067C1524.31 239.067 1525.03 239.204 1525.73 239.478C1526.42 239.747 1527.04 240.161 1527.59 240.722C1528.14 241.277 1528.58 241.978 1528.9 242.825C1529.22 243.666 1529.39 244.663 1529.39 245.814V246.602H1518.65V245.197H1527.76C1527.76 244.314 1527.58 243.52 1527.22 242.816C1526.87 242.106 1526.38 241.545 1525.74 241.134C1525.12 240.722 1524.39 240.516 1523.57 240.516C1522.7 240.516 1521.93 240.749 1521.27 241.214C1520.61 241.68 1520.09 242.294 1519.71 243.058C1519.34 243.821 1519.15 244.657 1519.15 245.563V246.405C1519.15 247.496 1519.34 248.451 1519.71 249.268C1520.09 250.08 1520.63 250.709 1521.33 251.157C1522.03 251.604 1522.86 251.828 1523.81 251.828C1524.46 251.828 1525.03 251.726 1525.52 251.523C1526.01 251.321 1526.43 251.049 1526.76 250.709C1527.1 250.363 1527.36 249.984 1527.53 249.573L1529.05 250.065C1528.84 250.643 1528.49 251.177 1528.02 251.667C1527.54 252.156 1526.95 252.55 1526.24 252.848C1525.54 253.14 1524.73 253.286 1523.81 253.286ZM1532.9 253V239.255H1534.44V241.366H1534.56C1534.83 240.674 1535.31 240.117 1535.99 239.693C1536.68 239.263 1537.45 239.049 1538.32 239.049C1538.45 239.049 1538.6 239.052 1538.76 239.058C1538.92 239.064 1539.05 239.07 1539.16 239.076V240.695C1539.09 240.683 1538.96 240.665 1538.78 240.642C1538.6 240.618 1538.41 240.606 1538.2 240.606C1537.49 240.606 1536.85 240.758 1536.29 241.062C1535.73 241.361 1535.29 241.775 1534.97 242.306C1534.65 242.837 1534.49 243.443 1534.49 244.123V253H1532.9ZM1549.3 253V234.673H1555.21C1556.51 234.673 1557.6 234.923 1558.47 235.424C1559.35 235.92 1560.01 236.594 1560.45 237.447C1560.89 238.3 1561.12 239.261 1561.12 240.328C1561.12 241.396 1560.9 242.36 1560.46 243.219C1560.01 244.072 1559.36 244.749 1558.49 245.25C1557.62 245.745 1556.53 245.993 1555.24 245.993H1550.59V244.49H1555.19C1556.15 244.49 1556.95 244.311 1557.58 243.953C1558.22 243.589 1558.69 243.094 1559 242.467C1559.31 241.841 1559.47 241.128 1559.47 240.328C1559.47 239.529 1559.31 238.816 1559 238.19C1558.69 237.563 1558.21 237.071 1557.57 236.713C1556.94 236.355 1556.14 236.176 1555.17 236.176H1550.97V253H1549.3ZM1568.55 253.313C1567.73 253.313 1566.97 253.152 1566.28 252.83C1565.6 252.502 1565.05 252.031 1564.64 251.416C1564.24 250.796 1564.04 250.044 1564.04 249.161C1564.04 248.481 1564.16 247.908 1564.42 247.443C1564.68 246.977 1565.04 246.596 1565.51 246.297C1565.98 245.999 1566.54 245.763 1567.19 245.59C1567.83 245.417 1568.54 245.283 1569.32 245.188C1570.08 245.092 1570.74 245.009 1571.27 244.937C1571.8 244.865 1572.21 244.752 1572.49 244.597C1572.77 244.442 1572.91 244.191 1572.91 243.845V243.523C1572.91 242.587 1572.63 241.85 1572.07 241.313C1571.52 240.77 1570.72 240.498 1569.67 240.498C1568.68 240.498 1567.87 240.716 1567.25 241.152C1566.63 241.587 1566.19 242.1 1565.94 242.691L1564.43 242.145C1564.74 241.393 1565.17 240.794 1565.72 240.346C1566.27 239.893 1566.88 239.568 1567.56 239.371C1568.24 239.168 1568.93 239.067 1569.63 239.067C1570.15 239.067 1570.7 239.135 1571.27 239.272C1571.84 239.41 1572.37 239.648 1572.86 239.988C1573.35 240.322 1573.74 240.791 1574.05 241.393C1574.35 241.99 1574.51 242.748 1574.51 243.666V253H1572.91V250.825H1572.81C1572.62 251.231 1572.34 251.625 1571.96 252.007C1571.59 252.388 1571.12 252.702 1570.55 252.946C1569.98 253.191 1569.32 253.313 1568.55 253.313ZM1568.77 251.855C1569.62 251.855 1570.35 251.667 1570.97 251.291C1571.59 250.915 1572.07 250.417 1572.4 249.796C1572.74 249.17 1572.91 248.481 1572.91 247.729V245.742C1572.79 245.856 1572.59 245.957 1572.31 246.047C1572.04 246.136 1571.72 246.217 1571.36 246.288C1571 246.354 1570.64 246.411 1570.28 246.458C1569.92 246.506 1569.6 246.548 1569.32 246.584C1568.54 246.679 1567.88 246.828 1567.33 247.031C1566.78 247.234 1566.36 247.514 1566.07 247.872C1565.77 248.224 1565.63 248.678 1565.63 249.233C1565.63 250.068 1565.93 250.715 1566.52 251.174C1567.12 251.628 1567.87 251.855 1568.77 251.855ZM1580.34 234.673V253H1578.74V234.673H1580.34ZM1586 247.81L1585.98 245.725H1586.34L1592.78 239.255H1594.8L1588.43 245.626L1588.29 245.653L1586 247.81ZM1584.55 253V234.673H1586.14V253H1584.55ZM1593.11 253L1587.53 245.939L1588.68 244.839L1595.16 253H1593.11ZM1601.63 253.313C1600.8 253.313 1600.04 253.152 1599.36 252.83C1598.67 252.502 1598.12 252.031 1597.72 251.416C1597.31 250.796 1597.11 250.044 1597.11 249.161C1597.11 248.481 1597.24 247.908 1597.5 247.443C1597.75 246.977 1598.12 246.596 1598.59 246.297C1599.06 245.999 1599.62 245.763 1600.26 245.59C1600.9 245.417 1601.61 245.283 1602.39 245.188C1603.16 245.092 1603.81 245.009 1604.34 244.937C1604.88 244.865 1605.29 244.752 1605.57 244.597C1605.85 244.442 1605.99 244.191 1605.99 243.845V243.523C1605.99 242.587 1605.71 241.85 1605.15 241.313C1604.59 240.77 1603.79 240.498 1602.75 240.498C1601.76 240.498 1600.95 240.716 1600.32 241.152C1599.7 241.587 1599.27 242.1 1599.02 242.691L1597.5 242.145C1597.81 241.393 1598.24 240.794 1598.79 240.346C1599.34 239.893 1599.96 239.568 1600.64 239.371C1601.32 239.168 1602.01 239.067 1602.7 239.067C1603.23 239.067 1603.77 239.135 1604.34 239.272C1604.91 239.41 1605.44 239.648 1605.93 239.988C1606.42 240.322 1606.82 240.791 1607.12 241.393C1607.43 241.99 1607.58 242.748 1607.58 243.666V253H1605.99V250.825H1605.89C1605.7 251.231 1605.41 251.625 1605.04 252.007C1604.66 252.388 1604.19 252.702 1603.63 252.946C1603.06 253.191 1602.39 253.313 1601.63 253.313ZM1601.84 251.855C1602.69 251.855 1603.43 251.667 1604.05 251.291C1604.67 250.915 1605.14 250.417 1605.48 249.796C1605.82 249.17 1605.99 248.481 1605.99 247.729V245.742C1605.87 245.856 1605.67 245.957 1605.39 246.047C1605.11 246.136 1604.79 246.217 1604.43 246.288C1604.07 246.354 1603.71 246.411 1603.36 246.458C1603 246.506 1602.68 246.548 1602.39 246.584C1601.61 246.679 1600.95 246.828 1600.4 247.031C1599.85 247.234 1599.43 247.514 1599.14 247.872C1598.85 248.224 1598.7 248.678 1598.7 249.233C1598.7 250.068 1599 250.715 1599.6 251.174C1600.19 251.628 1600.94 251.855 1601.84 251.855ZM1611.82 253V239.255H1613.37V241.366H1613.48C1613.76 240.674 1614.23 240.117 1614.91 239.693C1615.6 239.263 1616.38 239.049 1617.24 239.049C1617.37 239.049 1617.52 239.052 1617.68 239.058C1617.84 239.064 1617.97 239.07 1618.08 239.076V240.695C1618.01 240.683 1617.89 240.665 1617.71 240.642C1617.53 240.618 1617.33 240.606 1617.12 240.606C1616.41 240.606 1615.77 240.758 1615.21 241.062C1614.65 241.361 1614.22 241.775 1613.89 242.306C1613.57 242.837 1613.41 243.443 1613.41 244.123V253H1611.82Z" fill="black"/>
<path d="M56.032 221.624C53.8987 220.557 51.04 220.024 47.456 220.024C41.9093 220.024 39.136 222.072 39.136 226.168C39.136 228.131 40.864 230.2 44.32 232.376C47.1787 234.211 49.4187 235.661 51.04 236.728C52.6613 237.795 53.6427 238.499 53.984 238.84C57.44 241.869 59.168 245.368 59.168 249.336C59.168 253.773 57.4613 257.251 54.048 259.768C51.1467 261.901 47.6693 262.968 43.616 262.968C39.5627 262.968 35.8507 262.221 32.48 260.728L33.312 253.624C36.512 255.416 40.032 256.312 43.872 256.312C49.5467 256.312 52.384 253.816 52.384 248.824C52.384 246.861 50.656 244.728 47.2 242.424C44.0853 240.333 41.7173 238.733 40.096 237.624C38.5173 236.515 37.664 235.917 37.536 235.832C34.1227 232.888 32.416 229.667 32.416 226.168C32.416 222.2 33.952 219.021 37.024 216.632C39.7973 214.499 43.296 213.432 47.52 213.432C51.0187 213.432 54.24 213.987 57.184 215.096L56.032 221.624ZM85.083 261.752C83.4617 262.435 81.627 262.776 79.579 262.776C75.5257 262.776 72.9017 261.688 71.707 259.512C70.811 258.061 70.363 255.267 70.363 251.128V233.016H64.859V226.68H70.363V219.064L77.275 216.824V226.68H84.059V233.016H77.275V252.92C77.275 255.395 78.4057 256.632 80.667 256.632C82.1603 256.632 83.4617 256.355 84.571 255.8L85.083 261.752ZM105.773 232.312C102.872 232.312 100.568 233.464 98.861 235.768C97.2397 238.029 96.429 240.952 96.429 244.536C96.429 248.12 97.2397 251.043 98.861 253.304C100.568 255.608 102.872 256.76 105.773 256.76C108.674 256.76 110.957 255.608 112.621 253.304C114.285 251.085 115.117 248.163 115.117 244.536C115.117 240.952 114.285 238.029 112.621 235.768C110.957 233.464 108.674 232.312 105.773 232.312ZM105.773 226.296C111.064 226.296 115.181 228.195 118.125 231.992C120.77 235.363 122.093 239.544 122.093 244.536C122.093 249.528 120.77 253.709 118.125 257.08C115.181 260.877 111.064 262.776 105.773 262.776C100.44 262.776 96.301 260.877 93.357 257.08C90.7543 253.795 89.453 249.613 89.453 244.536C89.453 239.459 90.7543 235.277 93.357 231.992C96.301 228.195 100.44 226.296 105.773 226.296ZM147.018 233.4C146.463 233.315 145.951 233.251 145.482 233.208C145.012 233.123 144.543 233.08 144.074 233.08C141.599 233.08 139.764 234.296 138.57 236.728C137.46 238.861 136.906 241.507 136.906 244.664V262.008H130.058V235.64C130.058 234.019 130.015 232.504 129.93 231.096C129.887 229.645 129.823 228.301 129.738 227.064H136.65V231.352C138.612 227.981 141.108 226.296 144.138 226.296C145.076 226.296 146.036 226.424 147.018 226.68V233.4ZM179.164 227.128L166.492 262.52C165.425 265.507 164.316 267.576 163.164 268.728C161.756 270.307 159.878 271.117 157.532 271.16H156.892C155.27 271.16 153.606 270.947 151.9 270.52L152.604 264.12C154.097 264.675 155.313 264.952 156.252 264.952C156.337 264.952 156.508 264.931 156.764 264.888C157.062 264.888 157.446 264.867 157.916 264.824C158.897 264.739 159.793 263.309 160.604 260.536L161.116 258.872L149.532 227.128H156.572L164.316 250.488L172.38 227.128H179.164ZM210.205 227C210.341 225.5 209.977 224.326 209.114 223.477C208.25 222.614 206.795 222.182 204.75 222.182C203.447 222.182 202.356 222.333 201.477 222.636C200.614 222.939 199.939 223.356 199.455 223.886C198.985 224.417 198.689 225.03 198.568 225.727C198.432 226.273 198.439 226.773 198.591 227.227C198.758 227.667 199.068 228.068 199.523 228.432C199.992 228.795 200.606 229.121 201.364 229.409C202.136 229.697 203.053 229.955 204.114 230.182L207.75 231C210.235 231.545 212.318 232.265 214 233.159C215.697 234.038 217.03 235.083 218 236.295C218.97 237.508 219.606 238.864 219.909 240.364C220.227 241.864 220.235 243.5 219.932 245.273C219.417 248.333 218.227 250.924 216.364 253.045C214.5 255.167 212.068 256.78 209.068 257.886C206.068 258.992 202.598 259.545 198.659 259.545C194.629 259.545 191.205 258.947 188.386 257.75C185.583 256.538 183.553 254.689 182.295 252.205C181.053 249.705 180.75 246.515 181.386 242.636H193.386C193.205 244.061 193.356 245.258 193.841 246.227C194.326 247.197 195.106 247.932 196.182 248.432C197.258 248.932 198.598 249.182 200.205 249.182C201.568 249.182 202.735 249.015 203.705 248.682C204.674 248.348 205.439 247.886 206 247.295C206.561 246.705 206.902 246.03 207.023 245.273C207.144 244.576 207.023 243.955 206.659 243.409C206.295 242.864 205.636 242.371 204.682 241.932C203.727 241.492 202.417 241.091 200.75 240.727L196.295 239.727C192.341 238.818 189.356 237.318 187.341 235.227C185.326 233.136 184.614 230.273 185.205 226.636C185.689 223.667 186.909 221.076 188.864 218.864C190.833 216.636 193.333 214.909 196.364 213.682C199.409 212.439 202.78 211.818 206.477 211.818C210.235 211.818 213.379 212.447 215.909 213.705C218.455 214.962 220.28 216.727 221.386 219C222.508 221.273 222.811 223.939 222.295 227H210.205ZM239.375 259.636C235.587 259.636 232.466 258.886 230.011 257.386C227.557 255.871 225.837 253.765 224.852 251.068C223.867 248.356 223.678 245.212 224.284 241.636C224.86 238.061 226.087 234.924 227.966 232.227C229.86 229.515 232.284 227.409 235.239 225.909C238.208 224.394 241.587 223.636 245.375 223.636C248.799 223.636 251.655 224.258 253.943 225.5C256.246 226.727 257.89 228.47 258.875 230.727C259.875 232.97 260.133 235.606 259.648 238.636H248.011C248.148 236.818 247.852 235.424 247.125 234.455C246.413 233.485 245.375 233 244.011 233C242.89 233 241.86 233.318 240.92 233.955C239.996 234.576 239.201 235.523 238.534 236.795C237.883 238.053 237.405 239.636 237.102 241.545C236.799 243.455 236.761 245.045 236.989 246.318C237.231 247.576 237.701 248.523 238.398 249.159C239.11 249.78 240.011 250.091 241.102 250.091C242.042 250.091 242.905 249.879 243.693 249.455C244.496 249.015 245.186 248.379 245.761 247.545C246.352 246.697 246.799 245.667 247.102 244.455H258.739C258.163 247.545 257.004 250.227 255.261 252.5C253.519 254.773 251.299 256.53 248.602 257.773C245.905 259.015 242.83 259.636 239.375 259.636ZM271.097 259.545C268.884 259.545 266.983 259.182 265.392 258.455C263.816 257.712 262.665 256.591 261.938 255.091C261.225 253.576 261.066 251.667 261.46 249.364C261.778 247.455 262.377 245.826 263.256 244.477C264.134 243.129 265.225 242.023 266.528 241.159C267.831 240.295 269.294 239.636 270.915 239.182C272.551 238.712 274.278 238.409 276.097 238.273C278.066 238.121 279.665 237.932 280.892 237.705C282.119 237.477 283.036 237.167 283.642 236.773C284.248 236.379 284.612 235.848 284.733 235.182V235.091C284.869 234.182 284.627 233.485 284.006 233C283.4 232.515 282.551 232.273 281.46 232.273C280.278 232.273 279.256 232.53 278.392 233.045C277.544 233.561 276.96 234.364 276.642 235.455H265.097C265.581 233.333 266.574 231.379 268.074 229.591C269.589 227.788 271.597 226.348 274.097 225.273C276.612 224.182 279.612 223.636 283.097 223.636C285.581 223.636 287.763 223.932 289.642 224.523C291.521 225.098 293.074 225.909 294.301 226.955C295.544 227.985 296.415 229.197 296.915 230.591C297.43 231.97 297.551 233.47 297.278 235.091L293.278 259H281.551L282.369 254.091H282.097C281.188 255.394 280.165 256.447 279.028 257.25C277.907 258.053 276.68 258.636 275.347 259C274.028 259.364 272.612 259.545 271.097 259.545ZM276.551 251.636C277.491 251.636 278.415 251.439 279.324 251.045C280.233 250.652 281.013 250.083 281.665 249.341C282.316 248.598 282.733 247.697 282.915 246.636L283.369 243.727C283.036 243.864 282.665 243.992 282.256 244.114C281.862 244.22 281.445 244.326 281.006 244.432C280.581 244.538 280.127 244.636 279.642 244.727C279.172 244.818 278.688 244.909 278.188 245C277.188 245.152 276.347 245.402 275.665 245.75C274.983 246.083 274.453 246.5 274.074 247C273.695 247.485 273.46 248.03 273.369 248.636C273.233 249.591 273.453 250.333 274.028 250.864C274.619 251.379 275.46 251.636 276.551 251.636ZM297.182 272.091L305.227 224.091H317.682L316.682 230.182H316.955C317.591 229 318.424 227.917 319.455 226.932C320.5 225.932 321.727 225.136 323.136 224.545C324.561 223.939 326.136 223.636 327.864 223.636C330.167 223.636 332.25 224.25 334.114 225.477C335.977 226.705 337.348 228.636 338.227 231.273C339.106 233.909 339.197 237.333 338.5 241.545C337.833 245.576 336.644 248.917 334.932 251.568C333.235 254.22 331.235 256.197 328.932 257.5C326.644 258.803 324.258 259.455 321.773 259.455C320.136 259.455 318.72 259.189 317.523 258.659C316.326 258.114 315.364 257.379 314.636 256.455C313.909 255.515 313.409 254.455 313.136 253.273H312.864L309.773 272.091H297.182ZM314.591 241.545C314.318 243.242 314.295 244.712 314.523 245.955C314.765 247.182 315.242 248.136 315.955 248.818C316.682 249.485 317.621 249.818 318.773 249.818C319.924 249.818 320.955 249.492 321.864 248.841C322.773 248.174 323.545 247.227 324.182 246C324.818 244.758 325.288 243.273 325.591 241.545C325.864 239.818 325.886 238.341 325.659 237.114C325.432 235.871 324.97 234.924 324.273 234.273C323.576 233.606 322.652 233.273 321.5 233.273C320.348 233.273 319.295 233.606 318.341 234.273C317.402 234.924 316.606 235.871 315.955 237.114C315.318 238.341 314.864 239.818 314.591 241.545ZM357.472 259.636C353.744 259.636 350.653 258.924 348.199 257.5C345.744 256.061 344.017 254 343.017 251.318C342.017 248.621 341.835 245.394 342.472 241.636C343.078 238.03 344.328 234.879 346.222 232.182C348.131 229.485 350.532 227.386 353.426 225.886C356.335 224.386 359.593 223.636 363.199 223.636C365.835 223.636 368.146 224.045 370.131 224.864C372.131 225.682 373.759 226.871 375.017 228.432C376.275 229.992 377.123 231.879 377.562 234.091C378.017 236.288 378.017 238.773 377.562 241.545L377.108 244.455H345.926L347.017 237.545H366.653C366.805 236.545 366.706 235.667 366.358 234.909C366.025 234.136 365.487 233.538 364.744 233.114C364.017 232.674 363.138 232.455 362.108 232.455C361.078 232.455 360.108 232.674 359.199 233.114C358.305 233.553 357.54 234.167 356.903 234.955C356.282 235.742 355.866 236.667 355.653 237.727L354.29 245C354.108 246.121 354.176 247.121 354.494 248C354.813 248.879 355.366 249.568 356.153 250.068C356.941 250.568 357.956 250.818 359.199 250.818C360.047 250.818 360.85 250.705 361.608 250.477C362.381 250.235 363.063 249.886 363.653 249.432C364.259 248.962 364.744 248.394 365.108 247.727H376.562C375.744 250.152 374.449 252.258 372.676 254.045C370.919 255.818 368.752 257.197 366.176 258.182C363.616 259.152 360.714 259.636 357.472 259.636Z" fill="#1E1E1E"/>
<path d="M472.318 241.545H474.159L480.491 256.75H480.645L486.977 241.545H488.818V259H487.318V244.912H487.182L481.293 259H479.844L473.955 244.912H473.818V259H472.318V241.545ZM496.8 259.298C496.01 259.298 495.288 259.145 494.635 258.838C493.982 258.526 493.462 258.077 493.075 257.491C492.689 256.901 492.496 256.185 492.496 255.344C492.496 254.696 492.618 254.151 492.862 253.707C493.107 253.264 493.453 252.901 493.902 252.616C494.351 252.332 494.882 252.108 495.496 251.943C496.109 251.778 496.786 251.651 497.524 251.56C498.257 251.469 498.876 251.389 499.382 251.321C499.893 251.253 500.283 251.145 500.55 250.997C500.817 250.849 500.95 250.611 500.95 250.281V249.974C500.95 249.082 500.683 248.381 500.149 247.869C499.621 247.352 498.859 247.094 497.865 247.094C496.922 247.094 496.152 247.301 495.555 247.716C494.964 248.131 494.55 248.619 494.311 249.182L492.871 248.662C493.166 247.946 493.575 247.375 494.098 246.949C494.621 246.517 495.206 246.207 495.854 246.02C496.501 245.827 497.158 245.73 497.822 245.73C498.322 245.73 498.842 245.795 499.382 245.926C499.928 246.057 500.433 246.284 500.899 246.608C501.365 246.926 501.743 247.372 502.033 247.946C502.322 248.514 502.467 249.236 502.467 250.111V259H500.95V256.929H500.857C500.675 257.315 500.405 257.69 500.047 258.054C499.689 258.418 499.24 258.716 498.7 258.949C498.161 259.182 497.527 259.298 496.8 259.298ZM497.004 257.909C497.811 257.909 498.51 257.73 499.101 257.372C499.692 257.014 500.146 256.54 500.464 255.949C500.788 255.352 500.95 254.696 500.95 253.98V252.088C500.837 252.196 500.646 252.293 500.379 252.378C500.118 252.463 499.814 252.54 499.467 252.608C499.126 252.67 498.786 252.724 498.445 252.77C498.104 252.815 497.797 252.855 497.524 252.889C496.786 252.98 496.155 253.122 495.632 253.315C495.109 253.509 494.709 253.776 494.43 254.116C494.152 254.452 494.013 254.884 494.013 255.412C494.013 256.207 494.297 256.824 494.865 257.261C495.433 257.693 496.146 257.909 497.004 257.909ZM511.216 259.273C510.142 259.273 509.202 258.989 508.395 258.42C507.588 257.852 506.957 257.06 506.503 256.043C506.054 255.026 505.83 253.841 505.83 252.489C505.83 251.142 506.054 249.963 506.503 248.952C506.957 247.935 507.591 247.145 508.403 246.582C509.216 246.014 510.162 245.73 511.241 245.73C512.037 245.73 512.699 245.872 513.227 246.156C513.756 246.435 514.179 246.781 514.497 247.196C514.815 247.611 515.063 248.014 515.239 248.406H515.375V241.545H516.901V259H515.418V256.571H515.239C515.063 256.969 514.813 257.378 514.489 257.798C514.165 258.213 513.736 258.562 513.202 258.847C512.673 259.131 512.011 259.273 511.216 259.273ZM511.395 257.884C512.241 257.884 512.963 257.653 513.56 257.193C514.156 256.727 514.611 256.088 514.923 255.276C515.241 254.457 515.401 253.52 515.401 252.463C515.401 251.418 515.244 250.494 514.932 249.693C514.619 248.886 514.165 248.256 513.568 247.801C512.972 247.341 512.247 247.111 511.395 247.111C510.52 247.111 509.781 247.349 509.179 247.827C508.582 248.298 508.128 248.937 507.815 249.744C507.509 250.551 507.355 251.457 507.355 252.463C507.355 253.48 507.511 254.398 507.824 255.216C508.136 256.034 508.591 256.685 509.188 257.168C509.79 257.645 510.526 257.884 511.395 257.884ZM526.514 259.273C525.293 259.273 524.236 258.989 523.344 258.42C522.452 257.847 521.761 257.054 521.273 256.043C520.79 255.026 520.548 253.855 520.548 252.531C520.548 251.213 520.79 250.043 521.273 249.02C521.761 247.991 522.435 247.187 523.293 246.608C524.156 246.023 525.153 245.73 526.284 245.73C526.994 245.73 527.679 245.861 528.338 246.122C528.997 246.378 529.588 246.773 530.111 247.307C530.639 247.835 531.057 248.503 531.364 249.31C531.67 250.111 531.824 251.06 531.824 252.156V252.906H521.597V251.568H530.273C530.273 250.727 530.102 249.972 529.761 249.301C529.426 248.625 528.957 248.091 528.355 247.699C527.759 247.307 527.068 247.111 526.284 247.111C525.455 247.111 524.724 247.332 524.094 247.776C523.463 248.219 522.969 248.804 522.611 249.531C522.259 250.259 522.08 251.054 522.074 251.918V252.719C522.074 253.759 522.253 254.668 522.611 255.446C522.974 256.219 523.489 256.818 524.153 257.244C524.818 257.67 525.605 257.884 526.514 257.884C527.134 257.884 527.676 257.787 528.142 257.594C528.614 257.401 529.009 257.142 529.327 256.818C529.651 256.489 529.895 256.128 530.06 255.736L531.5 256.205C531.301 256.756 530.974 257.264 530.52 257.73C530.071 258.196 529.509 258.571 528.832 258.855C528.162 259.134 527.389 259.273 526.514 259.273ZM542.232 259V241.545H543.758V248.406H543.894C544.065 248.014 544.309 247.611 544.627 247.196C544.951 246.781 545.374 246.435 545.897 246.156C546.425 245.872 547.09 245.73 547.891 245.73C548.965 245.73 549.908 246.014 550.721 246.582C551.533 247.145 552.167 247.935 552.621 248.952C553.076 249.963 553.303 251.142 553.303 252.489C553.303 253.841 553.076 255.026 552.621 256.043C552.173 257.06 551.542 257.852 550.729 258.42C549.923 258.989 548.985 259.273 547.917 259.273C547.121 259.273 546.457 259.131 545.923 258.847C545.394 258.562 544.968 258.213 544.644 257.798C544.32 257.378 544.07 256.969 543.894 256.571H543.707V259H542.232ZM543.732 252.463C543.732 253.52 543.888 254.457 544.201 255.276C544.519 256.088 544.974 256.727 545.565 257.193C546.161 257.653 546.883 257.884 547.729 257.884C548.599 257.884 549.335 257.645 549.937 257.168C550.539 256.685 550.996 256.034 551.309 255.216C551.621 254.398 551.778 253.48 551.778 252.463C551.778 251.457 551.621 250.551 551.309 249.744C551.002 248.937 550.548 248.298 549.945 247.827C549.343 247.349 548.604 247.111 547.729 247.111C546.877 247.111 546.153 247.341 545.556 247.801C544.965 248.256 544.513 248.886 544.201 249.693C543.888 250.494 543.732 251.418 543.732 252.463ZM557.224 263.909C556.923 263.909 556.641 263.881 556.38 263.824C556.119 263.767 555.911 263.705 555.758 263.636L556.167 262.298C556.684 262.457 557.144 262.514 557.548 262.469C557.951 262.429 558.309 262.247 558.621 261.923C558.934 261.605 559.212 261.116 559.457 260.457L559.934 259.128L555.119 245.909H556.763L560.65 256.997H560.769L564.656 245.909H566.3L560.761 261.071C560.528 261.702 560.241 262.227 559.9 262.648C559.559 263.074 559.164 263.389 558.715 263.594C558.272 263.804 557.775 263.909 557.224 263.909ZM580.565 264.182C579.389 264.182 578.381 264.02 577.54 263.696C576.705 263.378 576.04 262.943 575.545 262.392C575.051 261.841 574.73 261.222 574.582 260.534L577.94 260.082C578.043 260.344 578.205 260.588 578.426 260.815C578.648 261.043 578.94 261.224 579.304 261.361C579.673 261.503 580.122 261.574 580.651 261.574C581.44 261.574 582.091 261.381 582.602 260.994C583.119 260.614 583.378 259.974 583.378 259.077V256.682H583.224C583.065 257.045 582.827 257.389 582.509 257.713C582.19 258.037 581.781 258.301 581.281 258.506C580.781 258.71 580.185 258.812 579.491 258.812C578.509 258.812 577.614 258.585 576.807 258.131C576.006 257.67 575.366 256.969 574.889 256.026C574.418 255.077 574.182 253.878 574.182 252.429C574.182 250.946 574.423 249.707 574.906 248.713C575.389 247.719 576.031 246.974 576.832 246.48C577.639 245.986 578.523 245.739 579.483 245.739C580.216 245.739 580.83 245.864 581.324 246.114C581.818 246.358 582.216 246.665 582.517 247.034C582.824 247.398 583.06 247.756 583.224 248.108H583.361V245.909H586.966V259.128C586.966 260.241 586.693 261.173 586.148 261.923C585.602 262.673 584.847 263.236 583.881 263.611C582.92 263.991 581.815 264.182 580.565 264.182ZM580.642 256.085C581.227 256.085 581.722 255.94 582.125 255.651C582.534 255.355 582.847 254.935 583.062 254.389C583.284 253.838 583.395 253.179 583.395 252.412C583.395 251.645 583.287 250.98 583.071 250.418C582.855 249.849 582.543 249.409 582.134 249.097C581.724 248.784 581.227 248.628 580.642 248.628C580.045 248.628 579.543 248.79 579.134 249.114C578.724 249.432 578.415 249.875 578.205 250.443C577.994 251.011 577.889 251.668 577.889 252.412C577.889 253.168 577.994 253.821 578.205 254.372C578.42 254.918 578.73 255.341 579.134 255.642C579.543 255.937 580.045 256.085 580.642 256.085ZM589.855 259V245.909H593.486V259H589.855ZM591.679 244.222C591.139 244.222 590.676 244.043 590.29 243.685C589.909 243.321 589.719 242.886 589.719 242.381C589.719 241.881 589.909 241.452 590.29 241.094C590.676 240.73 591.139 240.548 591.679 240.548C592.219 240.548 592.679 240.73 593.06 241.094C593.446 241.452 593.639 241.881 593.639 242.381C593.639 242.886 593.446 243.321 593.06 243.685C592.679 244.043 592.219 244.222 591.679 244.222ZM603.357 245.909V248.636H595.474V245.909H603.357ZM597.263 242.773H600.894V254.977C600.894 255.312 600.945 255.574 601.048 255.761C601.15 255.943 601.292 256.071 601.474 256.145C601.661 256.219 601.877 256.256 602.121 256.256C602.292 256.256 602.462 256.241 602.633 256.213C602.803 256.179 602.934 256.153 603.025 256.136L603.596 258.838C603.414 258.895 603.158 258.96 602.829 259.034C602.499 259.114 602.099 259.162 601.627 259.179C600.752 259.213 599.985 259.097 599.326 258.83C598.673 258.562 598.164 258.148 597.8 257.585C597.437 257.023 597.258 256.312 597.263 255.455V242.773ZM606.072 259V241.545H609.702V248.108H609.813C609.972 247.756 610.202 247.398 610.504 247.034C610.81 246.665 611.208 246.358 611.697 246.114C612.191 245.864 612.805 245.739 613.538 245.739C614.492 245.739 615.373 245.989 616.18 246.489C616.987 246.983 617.631 247.73 618.114 248.73C618.597 249.724 618.839 250.972 618.839 252.472C618.839 253.932 618.603 255.165 618.131 256.17C617.665 257.17 617.029 257.929 616.222 258.446C615.421 258.957 614.523 259.213 613.529 259.213C612.825 259.213 612.225 259.097 611.731 258.864C611.242 258.631 610.842 258.338 610.529 257.986C610.217 257.628 609.978 257.267 609.813 256.903H609.651V259H606.072ZM609.626 252.455C609.626 253.233 609.734 253.912 609.95 254.491C610.165 255.071 610.478 255.523 610.887 255.847C611.296 256.165 611.793 256.324 612.379 256.324C612.969 256.324 613.469 256.162 613.879 255.838C614.288 255.509 614.597 255.054 614.808 254.474C615.023 253.889 615.131 253.216 615.131 252.455C615.131 251.699 615.026 251.034 614.816 250.46C614.606 249.886 614.296 249.437 613.887 249.114C613.478 248.79 612.975 248.628 612.379 248.628C611.788 248.628 611.288 248.784 610.879 249.097C610.475 249.409 610.165 249.852 609.95 250.426C609.734 251 609.626 251.676 609.626 252.455ZM624.892 241.545V259H621.261V241.545H624.892ZM631.533 259.247C630.698 259.247 629.954 259.102 629.3 258.812C628.647 258.517 628.13 258.082 627.749 257.509C627.374 256.929 627.187 256.207 627.187 255.344C627.187 254.616 627.32 254.006 627.587 253.511C627.854 253.017 628.218 252.619 628.678 252.318C629.138 252.017 629.661 251.79 630.246 251.636C630.837 251.483 631.457 251.375 632.104 251.312C632.866 251.233 633.479 251.159 633.945 251.091C634.411 251.017 634.749 250.909 634.96 250.767C635.17 250.625 635.275 250.415 635.275 250.136V250.085C635.275 249.545 635.104 249.128 634.763 248.832C634.428 248.537 633.951 248.389 633.332 248.389C632.678 248.389 632.158 248.534 631.772 248.824C631.386 249.108 631.13 249.466 631.005 249.898L627.647 249.625C627.817 248.83 628.153 248.142 628.653 247.562C629.153 246.977 629.798 246.528 630.587 246.216C631.383 245.898 632.303 245.739 633.349 245.739C634.076 245.739 634.772 245.824 635.437 245.994C636.107 246.165 636.701 246.429 637.218 246.787C637.741 247.145 638.153 247.605 638.454 248.168C638.755 248.724 638.906 249.392 638.906 250.17V259H635.462V257.185H635.36C635.15 257.594 634.869 257.955 634.516 258.267C634.164 258.574 633.741 258.815 633.246 258.991C632.752 259.162 632.181 259.247 631.533 259.247ZM632.573 256.741C633.107 256.741 633.579 256.636 633.988 256.426C634.397 256.21 634.718 255.92 634.951 255.557C635.184 255.193 635.3 254.781 635.3 254.321V252.932C635.187 253.006 635.031 253.074 634.832 253.136C634.638 253.193 634.42 253.247 634.175 253.298C633.931 253.344 633.687 253.386 633.442 253.426C633.198 253.46 632.977 253.491 632.778 253.52C632.352 253.582 631.979 253.682 631.661 253.818C631.343 253.955 631.096 254.139 630.92 254.372C630.744 254.599 630.656 254.884 630.656 255.224C630.656 255.719 630.835 256.097 631.192 256.358C631.556 256.614 632.016 256.741 632.573 256.741ZM641.722 259V245.909H645.183V248.219H645.336C645.609 247.452 646.063 246.847 646.7 246.403C647.336 245.96 648.097 245.739 648.984 245.739C649.881 245.739 650.646 245.963 651.276 246.412C651.907 246.855 652.327 247.457 652.538 248.219H652.674C652.941 247.469 653.424 246.869 654.123 246.42C654.827 245.966 655.66 245.739 656.62 245.739C657.842 245.739 658.833 246.128 659.594 246.906C660.362 247.679 660.745 248.776 660.745 250.196V259H657.123V250.912C657.123 250.185 656.93 249.639 656.543 249.276C656.157 248.912 655.674 248.73 655.094 248.73C654.435 248.73 653.921 248.94 653.552 249.361C653.183 249.776 652.998 250.324 652.998 251.006V259H649.478V250.835C649.478 250.193 649.293 249.682 648.924 249.301C648.56 248.92 648.08 248.73 647.484 248.73C647.08 248.73 646.717 248.832 646.393 249.037C646.075 249.236 645.822 249.517 645.634 249.881C645.447 250.239 645.353 250.659 645.353 251.142V259H641.722ZM669.579 259.256C668.232 259.256 667.073 258.983 666.102 258.438C665.136 257.886 664.391 257.108 663.869 256.102C663.346 255.091 663.085 253.895 663.085 252.514C663.085 251.168 663.346 249.986 663.869 248.969C664.391 247.952 665.127 247.159 666.076 246.591C667.031 246.023 668.15 245.739 669.434 245.739C670.298 245.739 671.102 245.878 671.846 246.156C672.596 246.429 673.249 246.841 673.806 247.392C674.369 247.943 674.806 248.636 675.119 249.472C675.431 250.301 675.587 251.273 675.587 252.386V253.384H664.533V251.134H672.17C672.17 250.611 672.056 250.148 671.829 249.744C671.602 249.341 671.286 249.026 670.883 248.798C670.485 248.565 670.022 248.449 669.494 248.449C668.942 248.449 668.454 248.577 668.028 248.832C667.607 249.082 667.278 249.42 667.039 249.847C666.8 250.267 666.678 250.736 666.673 251.253V253.392C666.673 254.04 666.792 254.599 667.031 255.071C667.275 255.543 667.619 255.906 668.062 256.162C668.505 256.418 669.031 256.545 669.638 256.545C670.042 256.545 670.411 256.489 670.746 256.375C671.082 256.261 671.369 256.091 671.607 255.864C671.846 255.636 672.028 255.358 672.153 255.028L675.511 255.25C675.34 256.057 674.991 256.761 674.462 257.364C673.94 257.96 673.263 258.426 672.434 258.761C671.61 259.091 670.658 259.256 669.579 259.256ZM681.587 251.432V259H677.957V241.545H681.485V248.219H681.638C681.934 247.446 682.411 246.841 683.07 246.403C683.729 245.96 684.556 245.739 685.55 245.739C686.46 245.739 687.252 245.938 687.928 246.335C688.61 246.727 689.138 247.293 689.513 248.031C689.894 248.764 690.082 249.642 690.076 250.665V259H686.445V251.312C686.451 250.506 686.246 249.878 685.832 249.429C685.423 248.98 684.849 248.756 684.11 248.756C683.616 248.756 683.178 248.861 682.798 249.071C682.423 249.281 682.127 249.588 681.911 249.991C681.701 250.389 681.593 250.869 681.587 251.432ZM698.899 259.256C697.553 259.256 696.393 258.983 695.422 258.438C694.456 257.886 693.712 257.108 693.189 256.102C692.666 255.091 692.405 253.895 692.405 252.514C692.405 251.168 692.666 249.986 693.189 248.969C693.712 247.952 694.447 247.159 695.396 246.591C696.351 246.023 697.47 245.739 698.754 245.739C699.618 245.739 700.422 245.878 701.166 246.156C701.916 246.429 702.57 246.841 703.126 247.392C703.689 247.943 704.126 248.636 704.439 249.472C704.751 250.301 704.908 251.273 704.908 252.386V253.384H693.854V251.134H701.49C701.49 250.611 701.376 250.148 701.149 249.744C700.922 249.341 700.607 249.026 700.203 248.798C699.805 248.565 699.342 248.449 698.814 248.449C698.263 248.449 697.774 248.577 697.348 248.832C696.928 249.082 696.598 249.42 696.359 249.847C696.121 250.267 695.999 250.736 695.993 251.253V253.392C695.993 254.04 696.112 254.599 696.351 255.071C696.595 255.543 696.939 255.906 697.382 256.162C697.825 256.418 698.351 256.545 698.959 256.545C699.362 256.545 699.732 256.489 700.067 256.375C700.402 256.261 700.689 256.091 700.928 255.864C701.166 255.636 701.348 255.358 701.473 255.028L704.831 255.25C704.661 256.057 704.311 256.761 703.783 257.364C703.26 257.96 702.584 258.426 701.754 258.761C700.93 259.091 699.979 259.256 698.899 259.256ZM707.277 259V245.909H710.797V248.193H710.933C711.172 247.381 711.572 246.767 712.135 246.352C712.697 245.932 713.345 245.722 714.078 245.722C714.26 245.722 714.456 245.733 714.666 245.756C714.876 245.778 715.061 245.81 715.22 245.849V249.071C715.05 249.02 714.814 248.974 714.513 248.935C714.212 248.895 713.936 248.875 713.686 248.875C713.152 248.875 712.675 248.991 712.254 249.224C711.839 249.452 711.51 249.77 711.266 250.179C711.027 250.588 710.908 251.06 710.908 251.594V259H707.277Z" fill="black"/>
<g clip-path="url(#clip0_88_284)">
<path d="M811 227C802.164 227 795 234.164 795 243C795 250.503 800.166 256.8 807.135 258.529V247.89H803.836V243H807.135V240.893C807.135 235.447 809.6 232.923 814.946 232.923C815.96 232.923 817.709 233.122 818.425 233.321V237.753C818.047 237.713 817.391 237.693 816.576 237.693C813.953 237.693 812.939 238.687 812.939 241.271V243H818.165L817.268 247.89H812.939V258.883C820.862 257.926 827.001 251.18 827.001 243C827 234.164 819.836 227 811 227Z" fill="black"/>
</g>
<g clip-path="url(#clip1_88_284)">
<path d="M899.009 229.882C903.287 229.882 903.793 229.901 905.476 229.976C907.039 230.044 907.883 230.307 908.446 230.526C909.19 230.813 909.728 231.163 910.285 231.72C910.848 232.282 911.192 232.814 911.479 233.558C911.698 234.12 911.961 234.97 912.03 236.527C912.105 238.215 912.123 238.721 912.123 242.991C912.123 247.266 912.105 247.773 912.03 249.454C911.961 251.017 911.698 251.861 911.479 252.424C911.192 253.168 910.841 253.705 910.285 254.262C909.722 254.824 909.19 255.168 908.446 255.456C907.883 255.674 907.033 255.937 905.476 256.006C903.787 256.081 903.281 256.099 899.009 256.099C894.732 256.099 894.225 256.081 892.543 256.006C890.98 255.937 890.135 255.674 889.573 255.456C888.828 255.168 888.291 254.818 887.734 254.262C887.171 253.699 886.827 253.168 886.54 252.424C886.321 251.861 886.058 251.011 885.989 249.454C885.914 247.767 885.895 247.26 885.895 242.991C885.895 238.715 885.914 238.208 885.989 236.527C886.058 234.964 886.321 234.12 886.54 233.558C886.827 232.814 887.177 232.276 887.734 231.72C888.297 231.157 888.828 230.813 889.573 230.526C890.135 230.307 890.986 230.044 892.543 229.976C894.225 229.901 894.732 229.882 899.009 229.882ZM899.009 227C894.663 227 894.119 227.019 892.412 227.094C890.711 227.169 889.541 227.444 888.528 227.838C887.471 228.25 886.577 228.794 885.689 229.688C884.795 230.576 884.251 231.47 883.838 232.52C883.444 233.539 883.169 234.702 883.094 236.402C883.019 238.115 883 238.659 883 243.003C883 247.348 883.019 247.892 883.094 249.598C883.169 251.298 883.444 252.467 883.838 253.48C884.251 254.537 884.795 255.431 885.689 256.318C886.577 257.206 887.471 257.756 888.522 258.162C889.541 258.556 890.705 258.831 892.406 258.906C894.113 258.981 894.657 259 899.003 259C903.349 259 903.893 258.981 905.601 258.906C907.302 258.831 908.471 258.556 909.484 258.162C910.535 257.756 911.429 257.206 912.317 256.318C913.205 255.431 913.756 254.537 914.162 253.486C914.556 252.467 914.831 251.305 914.906 249.604C914.981 247.898 915 247.354 915 243.009C915 238.665 914.981 238.121 914.906 236.414C914.831 234.714 914.556 233.545 914.162 232.532C913.768 231.47 913.224 230.576 912.33 229.688C911.442 228.8 910.547 228.25 909.497 227.844C908.477 227.45 907.314 227.175 905.613 227.1C903.9 227.019 903.356 227 899.009 227Z" fill="#1E1E1E"/>
<path d="M899 235C894.583 235 891 238.583 891 243C891 247.417 894.583 251 899 251C903.417 251 907 247.417 907 243C907 238.583 903.417 235 899 235ZM899 248.189C896.135 248.189 893.811 245.865 893.811 243C893.811 240.135 896.135 237.811 899 237.811C901.865 237.811 904.189 240.135 904.189 243C904.189 245.865 901.865 248.189 899 248.189Z" fill="#1E1E1E"/>
<path d="M909 234.5C909 235.331 908.326 236 907.5 236C906.669 236 906 235.326 906 234.5C906 233.669 906.674 233 907.5 233C908.326 233 909 233.674 909 234.5Z" fill="#1E1E1E"/>
</g>
<g clip-path="url(#clip2_88_284)">
<path d="M1000.63 227H973.362C972.056 227 971 228.031 971 229.306V256.688C971 257.963 972.056 259 973.362 259H1000.63C1001.94 259 1003 257.963 1003 256.694V229.306C1003 228.031 1001.94 227 1000.63 227ZM980.494 254.269H975.744V238.994H980.494V254.269ZM978.119 236.913C976.594 236.913 975.363 235.681 975.363 234.162C975.363 232.644 976.594 231.412 978.119 231.412C979.638 231.412 980.869 232.644 980.869 234.162C980.869 235.675 979.638 236.913 978.119 236.913ZM998.269 254.269H993.525V246.844C993.525 245.075 993.494 242.794 991.056 242.794C988.587 242.794 988.212 244.725 988.212 246.719V254.269H983.475V238.994H988.025V241.081H988.087C988.719 239.881 990.269 238.613 992.575 238.613C997.381 238.613 998.269 241.775 998.269 245.888V254.269Z" fill="black"/>
</g>
<path d="M1084.2 229H1089.11L1078.39 241.284L1091 258H1081.13L1073.39 247.862L1064.54 258H1059.63L1071.1 244.861L1059 229H1069.13L1076.12 238.267L1084.2 229ZM1082.48 255.055H1085.2L1067.65 231.79H1064.73L1082.48 255.055Z" fill="black"/>
<defs>
<linearGradient id="paint0_linear_88_284" x1="0" y1="145" x2="1728" y2="145" gradientUnits="userSpaceOnUse">
<stop stop-color="#F97187"/>
<stop offset="1" stop-color="#A98AF7"/>
</linearGradient>
<clipPath id="clip0_88_284">
<rect width="32" height="32" fill="white" transform="translate(795 227)"/>
</clipPath>
<clipPath id="clip1_88_284">
<rect width="32" height="32" fill="white" transform="translate(883 227)"/>
</clipPath>
<clipPath id="clip2_88_284">
<rect width="32" height="32" fill="white" transform="translate(971 227)"/>
</clipPath>
</defs>
</svg>
